<?xml version="1.0" encoding="UTF-8"?>
<svg id="Layer_2_Image" data-name="Layer 2 Image" xmlns="http://www.w3.org/2000/svg" viewBox="0 0 138.42 33.14">
  <defs>
    <style>
      .cls-1 {
        fill: #020202;
        stroke-width: 0px;
      }
    </style>
  </defs>
  <path class="cls-1" d="M100.82.05h2.27v8.78h-2.55V3.48c-1.36,1.59-2.55,2.97-3.72,4.34-.44.21-.88.06-1.34.12-1.21-1.37-2.41-2.74-3.77-4.29v5.13c-.93.21-1.79.05-2.69.12V.07h2.37c1.5,1.74,3.07,3.55,4.72,5.46,1.65-1.79,3.11-3.66,4.71-5.48Z"/>
  <path class="cls-1" d="M7.69,19.92h-1.27c-1.16-1.32-2.36-2.69-3.75-4.27v5.19H0v-8.75h2.37c1.52,1.75,3.08,3.56,4.72,5.47,1.61-1.89,3.15-3.7,4.67-5.48h2.31v8.72c-.82.22-1.67.05-2.59.11v-5.4c-1.37,1.6-2.56,2.98-3.8,4.41Z"/>
  <path class="cls-1" d="M87.87,20.85h-2.69v-8.78h2.37c1.5,1.74,3.07,3.55,4.72,5.46,1.65-1.79,3.11-3.66,4.71-5.48h2.27v8.78h-2.55v-5.35c-1.36,1.59-2.55,2.97-3.72,4.34-.43.21-.88.06-1.34.12-1.21-1.37-2.41-2.74-3.77-4.29v5.19Z"/>
  <path class="cls-1" d="M33.79,15.51v5.33h-2.83v-8.74h2.37c1.92,1.65,3.96,3.41,6.18,5.32v-5.34h2.86v8.78h-2.34c-1.94-1.67-4.02-3.44-6.23-5.34Z"/>
  <path class="cls-1" d="M125.86,20.87h-2.3c-1.98-1.7-4.03-3.46-6.24-5.35v5.34h-2.86v-8.78h2.37c1.98,1.7,4.02,3.46,6.21,5.34v-5.33h2.83v8.78Z"/>
  <path class="cls-1" d="M70.11,6.08c.9.94,1.72,1.8,2.64,2.77h-3.14c-.61-.72-1.36-1.6-1.97-2.33-1.19-.14-2.1-.11-3.08-.05v2.33c-1,.19-1.93.07-2.9.11V.01c2.55.08,5.06-.19,7.56.22.76.12,1.48.36,2.11.78,1.78,1.19,1.71,3.43-.13,4.52-.31.18-.63.32-1.09.55ZM64.51,1.71c.05,1.11-.08,2.09.09,3.08,1.13,0,2.21.05,3.27-.01,1.18-.07,1.9-.75,1.86-1.61-.03-.79-.77-1.39-1.89-1.45-1.07-.05-2.13-.01-3.34-.01Z"/>
  <path class="cls-1" d="M49.2,24c2.54.12,5.01-.18,7.48.22.68.11,1.32.32,1.92.64.95.51,1.55,1.31,1.55,2.39,0,1.08-.59,1.87-1.57,2.37-.28.14-.63.16-.87.53.8.84,1.61,1.69,2.53,2.66h-3.22c-.58-.67-1.34-1.54-2.05-2.36h-2.81c-.28.76-.02,1.56-.17,2.38h-2.79v-8.84ZM52.08,28.79c1.18,0,2.29.05,3.39-.02,1.11-.07,1.8-.73,1.8-1.55,0-.77-.66-1.41-1.72-1.48-1.14-.08-2.28-.02-3.46-.02v3.06Z"/>
  <path class="cls-1" d="M68.61,23.77c1.58.1,3.23.33,4.68,1.29,2.71,1.78,2.72,5.02,0,6.79-1.67,1.09-3.55,1.37-5.5,1.26-1.15-.07-2.29-.3-3.35-.81-.69-.33-1.31-.76-1.82-1.33-1.3-1.44-1.3-3.56-.01-5.01.77-.86,1.74-1.39,2.83-1.72,1-.3,2.02-.45,3.17-.47ZM68.42,31.43c1.03.04,1.98-.2,2.82-.79,1.59-1.1,1.6-3.21.04-4.35-1.47-1.07-4.03-1.1-5.53-.05-1.7,1.19-1.68,3.33.06,4.47.78.52,1.66.75,2.6.72Z"/>
  <path class="cls-1" d="M75.79,15.6h5.75c.13.53.13.99.01,1.54h-5.65c-.15.75-.14,1.41-.02,2.14h6.6c.32.5.08.98.2,1.42-.9.25-7.65.31-9.73.11v-8.74h9.38c.15.47.08.93.06,1.51h-6.44c-.25.68-.09,1.28-.15,2.02Z"/>
  <path class="cls-1" d="M111.64,12.09v1.51h-6.4c-.27.67-.12,1.29-.15,1.98h5.68c.22.52.14.98.09,1.53h-5.65c-.22.74-.11,1.4-.11,2.17h6.69c.26.57.08,1.03.17,1.62h-9.72v-8.81h9.4Z"/>
  <path class="cls-1" d="M67.85,19.05v-2.64h2.57v3.62c-1.86.89-3.87,1.23-5.97,1.05-1.2-.1-2.37-.35-3.44-.93-1.02-.54-1.84-1.29-2.25-2.39-.51-1.39-.22-2.68.73-3.8.5-.59,1.11-1.04,1.82-1.33,2.5-1.04,5.03-1.13,7.59-.25.61.21,1.15.54,1.7,1.01-.53.5-1.13.77-1.73,1.1-1.53-1.03-3.18-1.25-4.94-.79-.43.11-.83.28-1.2.51-1.8,1.13-1.8,3.39.02,4.51,1.22.75,2.56.83,3.93.64.35-.05.69-.18,1.16-.31Z"/>
  <path class="cls-1" d="M46.45,28.35v3.69c-2.96,1.25-5.93,1.51-8.95.34-.79-.31-1.47-.8-2.03-1.45-1.27-1.48-1.24-3.58.07-5.02.52-.57,1.13-1.03,1.84-1.31,2.46-1,4.96-1.09,7.48-.25.63.21,1.22.54,1.78,1.1-.62.37-1.15.7-1.72,1.04-1.56-1.02-3.24-1.28-5.04-.78-.23.06-.46.14-.67.24-1.05.49-1.79,1.22-1.8,2.45-.02,1.28.73,2.07,1.83,2.56,1.49.66,3.01.62,4.62.06v-2.68c.94-.01,1.79-.02,2.6,0Z"/>
  <path class="cls-1" d="M91.61,24c2.61.12,5.08-.18,7.53.23.8.13,1.55.36,2.22.81,1.71,1.16,1.68,3.34-.05,4.46-1.25.81-2.69.92-4.12.99-.83.04-1.67,0-2.55,0-.25.75-.05,1.5-.16,2.32-.9.16-1.84.04-2.64.07-.26-.16-.23-.29-.23-.4,0-2.78,0-5.57,0-8.5ZM94.56,28.79c1.17,0,2.27.02,3.38-.01.31,0,.63-.12.91-.25.54-.24.9-.63.89-1.28,0-.59-.32-.97-.81-1.22-.28-.14-.6-.27-.9-.28-1.14-.03-2.28-.01-3.47-.01v3.06Z"/>
  <path class="cls-1" d="M47.42.07h2.91c0,1.47,0,2.94,0,4.4,0,2.28.86,3.09,3.13,2.96,1.6-.09,2.37-.9,2.39-2.51.01-1.59,0-3.18,0-4.84h2.88v1.97c0,.96.01,1.92,0,2.87-.04,1.91-.93,3.14-2.75,3.75-1.91.63-3.84.63-5.75.02-1.89-.6-2.78-1.82-2.79-3.82-.01-1.59,0-3.17,0-4.81Z"/>
  <path class="cls-1" d="M74.78.06h2.91c0,1.57.03,3.12,0,4.66-.03,1.08.18,2.04,1.28,2.45,1.2.45,2.44.48,3.53-.33.59-.44.73-1.1.72-1.82-.02-1.63,0-3.26,0-4.95h2.84c0,1.82.1,3.65-.03,5.45-.13,1.81-1.37,2.81-3.04,3.26-1.77.47-3.54.48-5.3-.07-1.98-.62-2.88-1.81-2.89-3.86-.01-1.56,0-3.11,0-4.79Z"/>
  <path class="cls-1" d="M80.33,24.07c0,1.69,0,3.29,0,4.88.01,1.6.8,2.41,2.41,2.48.4.02.8.02,1.19-.04,1.22-.21,1.89-.97,1.91-2.22.02-1.67,0-3.34,0-5.08h2.88v1.97c0,.96.01,1.92,0,2.87-.04,1.91-.93,3.14-2.75,3.75-1.91.63-3.84.63-5.75.02-1.89-.6-2.78-1.82-2.79-3.82-.01-1.59,0-3.17,0-4.81h2.91Z"/>
  <path class="cls-1" d="M43.2,8.87c-.39-.65-.74-1.23-1.1-1.85h-5.92c-.35.57-.72,1.17-1.12,1.82h-2.89c1.89-2.99,3.72-5.89,5.55-8.79h2.86c1.84,2.89,3.68,5.8,5.59,8.82h-2.98ZM37.19,5.4h3.96c-.69-1.18-1.31-2.23-1.98-3.37-.76,1.14-1.4,2.22-1.98,3.37Z"/>
  <path class="cls-1" d="M18.48,20.87h-2.85c1.82-3.04,3.71-5.9,5.54-8.81h2.86c1.83,2.88,3.67,5.79,5.59,8.8h-2.96c-.35-.58-.72-1.18-1.12-1.83h-5.91c-.34.55-.72,1.15-1.15,1.84ZM24.62,17.44c-.7-1.19-1.33-2.26-2.04-3.46-.68,1.24-1.43,2.25-1.94,3.46h3.98Z"/>
  <path class="cls-1" d="M57.94,20.86h-2.97c-.36-.59-.72-1.19-1.12-1.84h-5.91c-.34.56-.72,1.16-1.12,1.82h-2.89c1.88-2.98,3.71-5.88,5.55-8.79h2.87c1.83,2.88,3.68,5.79,5.59,8.81ZM52.86,17.43c-.6-1.22-1.22-2.28-2.01-3.37-.68,1.17-1.3,2.22-1.97,3.37h3.98Z"/>
  <path class="cls-1" d="M131.49,13.67h-4v-1.48c.86-.22,8.57-.29,10.81-.1.2.24.08.53.1.79.02.23,0,.47,0,.8h-4.05v7.16h-2.86v-7.17Z"/>
</svg>