<?xml version="1.0" encoding="UTF-8"?>
<svg id="Layer_1_Image" data-name="Layer 1 Image" xmlns="http://www.w3.org/2000/svg" viewBox="0 0 113.52 34.36">
  <defs>
    <style>
      .cls-1 {
        fill: #fff;
        stroke-width: 0px;
      }
    </style>
  </defs>
  <path class="cls-1" d="M24,.32h4.98c.11.4.01.75-.09,1.14-1.05,3.93-2.31,7.8-3.27,11.76-.17.71-.45,1.4-.69,2.13h-7.05c-.95-3.14-1.89-6.24-2.9-9.56-1.01,3.32-1.95,6.41-2.91,9.55h-7.04c-.57-1.53-.91-3.21-1.43-4.84-.54-1.67-1.03-3.37-1.43-5.07C1.77,3.75,1.12,2.14.85.35h5.39c.56,1.67.83,3.45,1.26,5.18.43,1.73.82,3.48,1.28,5.41,1.12-3.58,2.2-7,3.27-10.41h6.05c1.1,3.43,2.07,6.88,3.37,10.25.84-3.47,1.68-6.94,2.53-10.47Z"/>
  <path class="cls-1" d="M31.74.31h6.1v5.73c1.05,0,2.04,0,3.02,0,.99,0,1.98,0,3.04,0V.34h6.16v14.99h-6.14v-5.9h-6c-.11,1.93,0,3.87-.07,5.93-2.02.04-4.04,0-6.11.02V.31Z"/>
  <path class="cls-1" d="M63.74,15.63c-1.76.06-3.37-.15-4.98-.69-2.45-.82-4-2.41-4.67-4.88-.28-1.05-.14-2.14-.15-3.21,0-.88.24-1.71.6-2.5.68-1.47,1.79-2.53,3.23-3.19.99-.46,2.03-.76,3.13-.94,1.39-.23,2.77-.25,4.15-.16,1.64.11,3.28.37,4.75,1.18,2.19,1.21,3.44,3.02,3.63,5.57.1,1.42.02,2.78-.45,4.14-.64,1.85-1.96,2.99-3.69,3.74-1.81.78-3.7,1.06-5.57.95ZM62.62,3.39c-.21.09-.35.17-.49.22-.9.31-1.42.98-1.66,1.86-.44,1.64-.38,3.29.02,4.92.25,1.05,1.35,1.81,2.49,1.86.44.02.88-.01,1.32.02,1.28.09,2.35-1.04,2.62-2.01.39-1.4.3-2.82.13-4.23-.15-1.31-.88-2.15-2.13-2.56-.04-.01-.07-.04-.11-.07h-2.19Z"/>
  <path class="cls-1" d="M17.44,34.26c-1.07-2.45-1.56-5.07-2.48-7.67-.73,2.41-1.43,4.74-2.13,7.07.04.03.09.05.13.08-.2.19-.4.38-.6.57h-7.68c-.63-.52-.62-1.29-.83-1.94-.63-1.97-1.15-3.97-1.7-5.96-.67-2.44-1.33-4.89-2-7.34-.03-.11-.1-.21-.15-.31.19-.72.67-.98,1.39-.97,1.44.03,2.88.02,4.32,0,.42,0,.76.13,1.19.34.81,2.59,1.2,5.34,2.01,8.13.81-2.53,1.59-4.92,2.31-7.32.13-.43.34-.69.71-.92h6.3c.91.45.92,1.4,1.12,2.13.56,2.02,1.25,3.99,1.89,6.26.57-1.51.75-2.86,1.08-4.17.33-1.32.67-2.65,1-3.98.19-.16.37-.31.58-.48,1.62,0,3.25.01,4.89-.01.36,0,.56.28.84.26.12.24.21.42.3.62,0,.05,0,.13-.02.2-1.41,4.95-2.82,9.9-4.22,14.85-.06.2-.15.36-.32.49-.91.16-5.92.21-7.93.06ZM24.44,32.85c1.28-4.54,2.55-9.03,3.83-13.57h-3.76c-.53,2.28-1.03,4.53-1.57,6.77-.26,1.1-.61,2.19-.86,3.29-.11.47-.31.71-.85.66-.29-.27-.54-.54-.68-1.02-.95-3.17-1.98-6.32-2.99-9.49h-4.99c-1,3.12-2.01,6.19-2.96,9.29-.16.52-.41.81-.78,1-.47-.02-.57-.29-.75-.57-.27-.44-.2-.92-.31-1.37-.57-2.28-1.03-4.58-1.61-6.86-.15-.58-.07-1.28-.61-1.74-.65,0-1.29,0-1.93,0-.65.01-1.31-.06-1.97.05,1.3,4.61,2.58,9.11,3.83,13.56h6.04c.38-1.25.77-2.47,1.14-3.7.48-1.57.96-3.13,1.43-4.71.16-.53.37-.98,1.04-.92.31.19.54.43.65.8.47,1.57.95,3.14,1.43,4.71.38,1.27.76,2.54,1.14,3.82h6.05Z"/>
  <path class="cls-1" d="M46.96,30.17v3.78c-.18.18-.29.36-.52.36-.24,0-.48.02-.72.02-4.71,0-9.43,0-14.08,0-.3-.18-.5-.37-.67-.65,0-.08-.02-.2-.02-.31,0-4.59,0-9.19,0-13.78,0-.51-.05-1.04.32-1.5.38-.28.84-.3,1.32-.3,4.24,0,8.47,0,12.71,0,.48,0,.94.03,1.37.32.5,1.07.25,2.24.28,3.37.01.56-.47,1.01-1.03,1.08-.28.03-.56,0-.84,0-2.2,0-4.39,0-6.58,0-.21.3-.16.6-.05,1,1.73,0,3.48,0,5.22,0,.43,0,.88-.06,1.42.45.55,1,.01,2.35.25,3.6-.2.25-.38.46-.6.72h-6.32c-.09.41-.08.75-.01,1.16h7.74c.44.17.63.43.81.66ZM32.41,32.84h13.15c-.03-.64.07-1.22-.07-1.82h-.89c-2.16,0-4.32,0-6.47,0-.43,0-.9.1-1.19-.45v-3.06c.2-.26.39-.51.76-.6,1.01,0,2.05.02,3.09,0,1.02-.02,2.05.1,3.08-.09-.06-.65.08-1.24-.08-1.8-1.95,0-3.83,0-5.71,0-.44,0-.9.06-1.13-.44v-2.84c.18-.28.38-.48.79-.67h7.66c-.11-.65.07-1.24-.11-1.77h-12.88v13.54Z"/>
  <path class="cls-1" d="M111.48,23.89c.42.53.28,1.19.29,1.81.01.64,0,1.28,0,1.98-.14.18-.32.39-.53.65h-6.31c-.14.4-.09.75-.06,1.07.07.15.19.16.31.16,2.55,0,5.11,0,7.77,0,.15.15.34.35.47.48.18,2.68.12,3.54-.29,4.24h-15.09c-.2-.11-.41-.3-.56-.54-.02-.07-.05-.15-.05-.22,0-4.67,0-9.35,0-14.02,0-.48-.01-.95.34-1.41.34-.27.8-.29,1.28-.29,4.28,0,8.55,0,12.83,0,.44,0,.86.03,1.29.35.49,1.05.23,2.26.27,3.43.02.48-.5.92-1,.98-.28.03-.56,0-.84,0-2.2,0-4.39,0-6.6,0-.26.27-.15.58-.11.87.08.04.14.11.2.11,1.72,0,3.44.03,5.15,0,.45,0,.85.08,1.24.33ZM104.13,21.1h7.66v-1.82h-12.87v13.57h13.08v-1.84h-.86c-2.2,0-4.4,0-6.59,0-.44,0-.9.06-1.11-.42v-3.08c.19-.3.4-.48.81-.66h6.04v-1.83c-.21,0-.36,0-.52,0-1.72,0-3.44,0-5.16,0-.43,0-.9.09-1.19-.45v-2.8c.15-.27.34-.46.71-.66Z"/>
  <path class="cls-1" d="M76.55,33.62c0-4.68,0-9.36,0-14.04,0-.51-.06-1.04.31-1.48.38-.22.77-.31,1.23-.31,2.92.02,5.84-.05,8.75.04,1.87.06,3.72.38,5.41,1.33,1.22.68,2.05,1.61,2.36,2.94.47,1.99.15,3.61-1.47,5.05-.39.35-.94.43-1.27.83-.13.45.22.66.44.92,1.2,1.37,2.42,2.74,3.62,4.11.1.11.19.24.22.27.07.57-.29.73-.58,1.01h-6.7c-.98-.72-1.62-1.8-2.44-2.71-.77-.85-1.43-1.8-2.24-2.62-.09.04-.18.09-.27.13v2.95c0,.32-.01.64,0,.96.02.51-.13.93-.6,1.29h-6.17c-.22-.15-.45-.32-.62-.68ZM78.05,19.25v13.65c.77,0,1.49.01,2.2,0,.74-.02,1.49.07,2.28-.06v-4.8c.67-.62,1.42-.35,2.27-.44,1.75,1.48,3,3.52,4.58,5.25h4.44c-1.4-1.59-2.74-3.11-4.07-4.63-.07-.33-.11-.64.03-.94.5-.42,1.15-.5,1.71-.78,2.46-1.21,2.31-4.26.77-5.58-.52-.45-1.11-.72-1.73-.98-1.34-.55-2.77-.59-4.17-.65-2.75-.11-5.5-.03-8.31-.03Z"/>
  <path class="cls-1" d="M60.65,34.31h-6.24c-.3-.11-.51-.34-.67-.63,0-.11-.04-.25,0-.35,1.12-2.82,2.25-5.64,3.39-8.46.79-1.95,1.58-3.9,2.37-5.85.19-.48.36-.97.93-1.22h8.22c.87.43,1.02,1.37,1.35,2.13,1.18,2.71,2.27,5.46,3.39,8.2.74,1.8,1.48,3.6,2.19,5.33-.08.44-.33.62-.66.83h-6.42c-.8-.69-.65-1.83-1.25-2.63h-5.48c-.38.86-.59,1.78-1.13,2.64ZM68.13,19.26h-7.14c-.62,1.51-1.24,3.03-1.86,4.55-.6,1.49-1.22,2.97-1.79,4.47-.57,1.51-1.29,2.97-1.75,4.57h4.17c.34-.87.67-1.7,1.02-2.57,2.07-.42,4.15-.11,6.2-.22.49-.02.92.13,1.26.28.61.8.64,1.77,1.15,2.56.73,0,1.45.01,2.17,0,.7-.02,1.42.08,2.21-.09-1.89-4.54-3.75-9.01-5.63-13.53Z"/>
  <path class="cls-1" d="M82.53,25.74v-4.36c.15-.3.45-.45.68-.45,1.34-.05,2.71-.19,4,.29,1.13.42,1.66,1.33,1.57,2.51-.09,1.07-.79,1.94-1.83,2.2-.65.16-1.31.3-1.99.25-.4-.03-.8-.02-1.2,0-.46.03-.85-.1-1.23-.44ZM87.31,23.13c-.96-1.15-2.18-.73-3.33-.76v2.38c1.18-.13,2.44.35,3.33-.83v-.79Z"/>
  <path class="cls-1" d="M67.01,28.57h-5c-.5-.38-.4-.8-.22-1.28.58-1.57,1.12-3.15,1.67-4.73.15-.44.24-.91.53-1.27.3-.22.61-.18.97-.11.08.1.22.2.27.34.57,1.57,1.13,3.15,1.69,4.72.14.4.29.8.42,1.21.12.39.18.79-.33,1.13ZM65.73,27.11c-.36-1.12-.68-2.13-1.22-3.27-.43,1.18-.8,2.19-1.19,3.27h2.41Z"/>
</svg>