<?xml version="1.0" encoding="UTF-8"?>
<svg id="Layer_5_Image" data-name="Layer 5 Image" xmlns="http://www.w3.org/2000/svg" viewBox="0 0 111.72 111.29">
  <defs>
    <style>
      .cls-1 {
        fill: #020202;
        stroke-width: 0px;
      }
    </style>
  </defs>
  <path class="cls-1" d="M55.64,63.41c-.38.13-.58.44-.83.69-8.87,8.83-17.74,17.66-26.61,26.49-.34.34-.67.69-1.03,1-1.73,1.47-3.72,1.64-5.72.81-1.97-.82-2.96-2.42-3.04-4.61-.06-1.78.64-3.14,1.87-4.36,5.23-5.18,10.43-10.38,15.65-15.57,3.91-3.89,7.82-7.78,11.74-11.68.11-.11.22-.23.32-.34-.02-.49-.43-.68-.7-.94-9-8.99-18-17.96-27-26.94-.83-.83-1.44-1.73-1.84-2.88-.58-1.67-.03-3.06.81-4.35,1.81-2.8,5.82-2.87,7.89-.94.96.9,1.89,1.84,2.83,2.77,8.3,8.27,16.59,16.54,24.89,24.81.25.25.45.57.84.67.4-.13.62-.48.89-.76,8.87-8.83,17.73-17.67,26.6-26.5.34-.34.68-.68,1.02-1.01,2.04-1.96,6.29-1.93,8.15,1.1,1.2,1.95.9,4.9-.81,6.63-2.19,2.22-4.41,4.41-6.62,6.61-6.88,6.86-13.77,13.71-20.65,20.57-.31.31-.68.56-.87.97.03.47.42.67.69.93,8.83,8.81,17.67,17.61,26.51,26.42.4.39.8.78,1.16,1.21,1.91,2.28,1.54,5.74-.8,7.58-1.75,1.38-4.58,1.44-6.39.12-.39-.28-.74-.61-1.08-.94-8.93-8.89-17.85-17.78-26.78-26.66-.33-.33-.58-.77-1.08-.9Z"/>
  <path class="cls-1" d="M28.68,111.29H0V0h28.69v7.62H7.91v95.98h20.76v7.69Z"/>
  <path class="cls-1" d="M103.77,7.64h-20.75V.03h28.7v111.23h-28.72v-7.6h20.77V7.64Z"/>
</svg>