<?xml version="1.0" encoding="UTF-8"?>
<svg id="Layer_2_Image" data-name="Layer 2 Image" xmlns="http://www.w3.org/2000/svg" viewBox="0 0 93.67 115.12">
  <defs>
    <style>
      .cls-1 {
        fill: #fff;
        stroke-width: 0px;
      }
    </style>
  </defs>
  <path class="cls-1" d="M90.66,39.2c-17.21,10.53-16.8,36.23,3,45.32-.18,1-.59,1.96-.95,2.92-3.02,8.11-7.64,15.24-13.36,21.68-1.09,1.23-2.33,2.31-3.67,3.25-3.91,2.76-8.16,3.19-12.68,1.89-1.66-.48-3.22-1.19-4.79-1.88-5.95-2.61-11.92-2.61-17.93-.21-2.04.81-4.02,1.75-6.14,2.35-4.53,1.29-8.6.45-12.27-2.49-2.01-1.61-3.73-3.49-5.33-5.5-3.94-4.95-7.49-10.12-10.1-15.93-2.86-6.38-4.87-13-5.86-19.91-.74-5.21-.88-10.44-.03-15.65,1.34-8.27,4.75-15.46,11.37-20.85,4.77-3.89,10.27-5.91,16.43-6.09,3.13-.09,6.1.68,8.99,1.76,2.02.75,4.02,1.55,6.03,2.32.22.09.46.15.68.23,2.34.89,4.68.87,7.02-.03,2.27-.87,4.55-1.74,6.83-2.58,3.67-1.34,7.42-2.21,11.37-2,8.7.47,15.89,3.85,21.13,10.99.07.1.13.2.24.38Z"/>
  <path class="cls-1" d="M69.63,0c.43,1.38.35,2.75.2,4.08-.82,7.38-4.11,13.44-9.99,18.01-3,2.34-6.4,3.89-10.22,4.38-.96.12-1.91.17-2.9-.09-.29-.61-.3-1.28-.3-1.95,0-3.38.85-6.55,2.33-9.57,3.77-7.68,9.86-12.48,18.14-14.51.88-.22,1.79-.33,2.74-.35Z"/>
</svg>