<?xml version="1.0" encoding="UTF-8"?>
<svg id="Layer_6_Image" data-name="Layer 6 Image" xmlns="http://www.w3.org/2000/svg" viewBox="0 0 115.18 75.85">
  <defs>
    <style>
      .cls-1 {
        fill: #fff;
        stroke-width: 0px;
      }
    </style>
  </defs>
  <path class="cls-1" d="M58.11.01c16.28,0,32.55,0,48.83,0,.4,0,.8-.02,1.2,0,.93.06,1.54.59,1.88,1.41.33.79.05,1.46-.53,2.03-1.94,1.91-3.86,3.83-5.8,5.74-3.4,3.32-6.76,6.69-10.22,9.94-3.12,2.93-6.06,6.03-9.18,8.94-2.66,2.48-5.15,5.13-7.82,7.59-2.82,2.6-5.44,5.41-8.25,8.01-2.05,1.9-4.02,3.89-6.01,5.84-2.21,2.17-5.93,2.64-8.63.4-1.23-1.02-2.31-2.2-3.46-3.3-1.05-.99-2.02-2.05-3.09-3.02-3.28-2.99-6.29-6.25-9.53-9.27-2.6-2.42-5.04-5.01-7.65-7.42-3.11-2.87-6.01-5.97-9.1-8.85-2.72-2.53-5.27-5.24-8-7.76-2.29-2.11-4.45-4.35-6.7-6.51-.2-.19-.4-.39-.58-.6-.89-1.05-.17-2.77,1.11-2.93C7.43.16,8.27,0,9.16,0c16.32.02,32.63.01,48.95.01Z"/>
  <path class="cls-1" d="M46.33,47.77c.64-.02,1.08.3,1.49.7,1.05,1.04,2.11,2.07,3.16,3.12,1.29,1.28,2.83,2.2,4.58,2.58,3.06.65,5.86-.06,8.22-2.16,1.28-1.14,2.5-2.34,3.74-3.53.41-.4.84-.7,1.45-.71.46,0,.82.14,1.2.4,2.81,1.9,5.65,3.77,8.47,5.65,8.28,5.51,16.56,11.02,24.84,16.53.89.59,1.76,1.2,2.64,1.81.95.65,1.31,1.38,1.09,2.15-.25.83-1.05,1.43-2.06,1.53-.16.02-.32,0-.48.01-.52,0-1.04.01-1.56.01-30.44,0-60.87,0-91.31,0-.79,0-1.59.04-2.35-.25-.33-.12-.67-.21-.94-.46-.77-.72-.93-1.9.43-2.88,1.31-.95,2.67-1.84,4.02-2.74,7.1-4.73,14.21-9.45,21.32-14.18,3.45-2.3,6.89-4.62,10.35-6.92.52-.35,1.05-.73,1.7-.64Z"/>
  <path class="cls-1" d="M.01,38.77C.01,28.25.02,17.73,0,7.21c0-.88.24-1.58.96-2.05.86-.56,1.53-.49,2.29.14.7.58,1.38,1.2,2.03,1.84,2.37,2.32,4.67,4.72,7.1,6.98,2.54,2.37,4.92,4.91,7.48,7.26,3.01,2.75,5.77,5.75,8.76,8.51,2.67,2.47,5.15,5.13,7.83,7.58,1.94,1.78,3.76,3.69,5.67,5.5.2.19.41.38.59.6.72.88.56,1.79-.05,2.47-.24.26-.51.52-.8.72-12.89,8.6-25.79,17.19-38.69,25.77-1.19.79-2.39.38-3-.93-.17-.36-.14-.69-.14-1.04,0-3.56,0-7.12,0-10.68,0-7.04,0-14.08,0-21.12Z"/>
  <path class="cls-1" d="M115.16,71.61c-.37.43-.69.93-1.29,1.17-.39.15-.74.25-1.12.05-.45-.24-.94-.42-1.36-.7-7.25-4.83-14.49-9.66-21.72-14.5-2.52-1.69-5.03-3.41-7.56-5.09-2.69-1.79-5.4-3.54-8.1-5.32-.4-.26-.76-.57-1.15-.85-.51-.38-.72-.92-.85-1.56.05-.71.46-1.24.99-1.76,3.33-3.22,6.59-6.51,9.97-9.68,2.97-2.79,5.78-5.75,8.76-8.52,2.58-2.39,4.99-4.95,7.57-7.33,2.99-2.76,5.8-5.72,8.76-8.52,1.25-1.18,2.48-2.36,3.72-3.55.9-.86,1.96-.86,2.87-.04.3.27.5.61.52,1.03.01.2,0,.4,0,.6,0,21.43,0,42.87,0,64.3,0,.08,0,.16-.01.27Z"/>
</svg>