<?xml version="1.0" encoding="UTF-8"?>
<svg id="Layer_2_Image" data-name="Layer 2 Image" xmlns="http://www.w3.org/2000/svg" viewBox="0 0 42.59 42.66">
  <path d="M0,22.01c.05-.09.09-.21.17-.3.82-.95,1.82-.87,2.37.25.4.82.78,1.65,1.28,2.42,1.85,2.85,4.34,4.91,7.53,6.15,1.77.69,3.61,1.09,5.45,1.04,3.88-.09,7.39-1.31,10.28-4.05,1.43-1.36,2.65-2.86,3.52-4.63.79-1.61,1.28-3.32,1.51-5.1.52-4.12-.46-7.88-2.86-11.26-.95-1.34-2.08-2.51-3.43-3.47-.58-.41-1.21-.8-1.34-1.63.09-.6.43-1.06,1.04-1.36.93-.27,1.8.21,2.62.5,4.36,1.56,7.9,4.23,10.57,8.05,1.64,2.35,2.8,4.93,3.39,7.7.59,2.76.68,5.56.16,8.4-.77,4.18-2.5,7.82-5.36,10.95-2.78,3.04-6.13,5.11-10.11,6.22-1.93.54-3.89.84-5.88.75-7.13-.32-12.79-3.38-16.97-9.19-1.7-2.36-2.7-5.02-3.43-7.78-.3-1.14-.33-2.36-.5-3.67Z" stroke-width="0"/>
</svg>