<?xml version="1.0" encoding="UTF-8"?>
<svg id="Layer_1_Image" data-name="Layer 1 Image" xmlns="http://www.w3.org/2000/svg" viewBox="0 0 89.71 49.89">
  <defs>
    <style>
      .cls-1 {
        fill: #020202;
        stroke-width: 0px;
      }
    </style>
  </defs>
  <path class="cls-1" d="M44.96,37.85c.48-.22.73-.59,1.04-.89,11.54-11.53,23.08-23.07,34.62-34.6.23-.23.45-.46.68-.68,2.03-1.87,4.99-1.82,6.92.11,1.92,1.92,2,4.93.11,6.92-1.34,1.42-2.75,2.79-4.14,4.17-11.68,11.68-23.4,23.31-35.02,35.06-2.58,2.61-5.83,2.58-8.36.03C27.9,34.93,14.89,21.98,1.9,9.01c-.9-.9-1.62-1.85-1.83-3.15C-.27,3.82.62,1.82,2.4.73c1.75-1.07,4-.96,5.63.31.44.34.83.75,1.23,1.15,11.59,11.6,23.18,23.19,34.77,34.79.3.3.62.59.92.88Z"/>
</svg>