<?xml version="1.0" encoding="UTF-8"?>
<svg id="Layer_1_Image" data-name="Layer 1 Image" xmlns="http://www.w3.org/2000/svg" viewBox="0 0 89.71 49.89">
  <path d="M44.75,37.85c-.48-.22-.73-.59-1.04-.89C32.17,25.43,20.63,13.89,9.09,2.36c-.23-.23-.45-.46-.68-.68C6.38-.18,3.41-.14,1.49,1.79c-1.92,1.92-2,4.93-.11,6.92,1.34,1.42,2.75,2.79,4.14,4.17,11.68,11.68,23.4,23.31,35.02,35.06,2.58,2.61,5.83,2.58,8.36.03,12.91-13.04,25.93-25.99,38.91-38.96.9-.9,1.62-1.85,1.83-3.15.34-2.05-.55-4.04-2.33-5.13-1.75-1.07-4-.96-5.63.31-.44.34-.83.75-1.23,1.15-11.59,11.6-23.18,23.19-34.77,34.79-.3.3-.62.59-.92.88Z" stroke-width="0"/>
</svg>