<?xml version="1.0" encoding="UTF-8"?>
<svg id="Layer_1_Image" data-name="Layer 1 Image" xmlns="http://www.w3.org/2000/svg" viewBox="0 0 89.71 49.89">
  <path d="M44.96,12.04c.48.22.73.59,1.04.89,11.54,11.53,23.08,23.07,34.62,34.6.23.23.45.46.68.68,2.03,1.87,4.99,1.82,6.92-.11,1.92-1.92,2-4.93.11-6.92-1.34-1.42-2.75-2.79-4.14-4.17C72.52,25.33,60.8,13.69,49.18,1.95c-2.58-2.61-5.83-2.58-8.36-.03C27.9,14.97,14.89,27.91,1.9,40.88c-.9.9-1.62,1.85-1.83,3.15-.34,2.05.55,4.04,2.33,5.13,1.75,1.07,4,.96,5.63-.31.44-.34.83-.75,1.23-1.15,11.59-11.6,23.18-23.19,34.77-34.79.3-.3.62-.59.92-.88Z" stroke-width="0"/>
</svg>