<?xml version="1.0" encoding="UTF-8"?>
<svg id="Layer_2_Image" data-name="Layer 2 Image" xmlns="http://www.w3.org/2000/svg" viewBox="0 0 41.94 41.93">
  <defs>
    <style>
      .cls-1 {
        fill: #040404;
        stroke-width: 0px;
      }
    </style>
  </defs>
  <path class="cls-1" d="M10.43,21.01c.1-5.82,4.58-10.51,10.45-10.55,5.87-.05,10.59,4.6,10.58,10.52,0,5.86-4.63,10.48-10.48,10.49-5.84.01-10.39-4.59-10.55-10.46ZM20.94,13.51c-3.9-.15-7.54,3.4-7.46,7.63.07,3.78,3.42,7.35,7.58,7.31,3.88-.04,7.46-3.45,7.41-7.61-.05-3.9-3.49-7.51-7.52-7.34Z"/>
  <path class="cls-1" d="M10.36,12.33c-1.76-1.76-3.47-3.48-5.18-5.19.63-.6,1.31-1.26,1.95-1.87,1.67,1.67,3.4,3.41,5.08,5.09-.58.61-1.23,1.3-1.86,1.96Z"/>
  <path class="cls-1" d="M31.47,12.21c-.58-.56-1.23-1.19-1.78-1.72,1.73-1.73,3.46-3.46,5.14-5.15.5.51,1.16,1.18,1.74,1.76-1.62,1.62-3.36,3.36-5.1,5.11Z"/>
  <path class="cls-1" d="M19.57,0h2.81v7.45h-2.81V0Z"/>
  <path class="cls-1" d="M7.45,19.56v2.82H0v-2.82h7.45Z"/>
  <path class="cls-1" d="M34.49,19.56h7.45v2.82h-7.45v-2.82Z"/>
  <path class="cls-1" d="M22.36,41.93h-2.81v-7.46h2.81v7.46Z"/>
  <path class="cls-1" d="M5.28,34.66c1.6-1.61,3.31-3.33,5.07-5.09.76.54,1.36,1.27,1.92,1.84-1.76,1.75-3.48,3.48-5.15,5.15-.49-.5-1.14-1.17-1.84-1.89Z"/>
  <path class="cls-1" d="M31.61,29.5c.21.2.39.35.56.52,1.55,1.54,3.1,3.09,4.57,4.57-.7.74-1.37,1.44-2.11,2.22-.1-.13-.23-.33-.4-.5-1.54-1.55-3.1-3.1-4.69-4.69.58-.82,1.32-1.46,2.07-2.12Z"/>
</svg>