<?xml version="1.0" encoding="UTF-8"?>
<svg id="Layer_14_Image" data-name="Layer 14 Image" xmlns="http://www.w3.org/2000/svg" viewBox="0 0 119.94 119.98">
  <path d="M59.88,119.98C26.71,119.83-.04,93.13,0,59.9.04,26.68,26.88-.09,60.16,0c32.92.09,59.86,26.63,59.78,60.12-.07,33.44-27.1,59.82-60.06,59.86ZM35.97,80.6c.03,1.2.74,2.39,2.19,3.04,1.4.62,2.74.39,3.92-.61.4-.33.73-.73,1.1-1.1,5.06-5.06,10.12-10.12,15.18-15.17,4.64-4.63,9.27-9.27,13.91-13.9,3.59-3.59,7.19-7.17,10.76-10.77,1.47-1.49,1.46-3.72.04-5.18-1.44-1.48-3.76-1.51-5.27-.01-2.78,2.75-5.53,5.54-8.29,8.31-2.76,2.77-5.52,5.54-8.29,8.31-2.43,2.43-4.87,4.84-7.3,7.27-2.82,2.82-5.63,5.66-8.45,8.49-2.8,2.79-5.61,5.57-8.4,8.37-.7.7-1.09,1.57-1.09,2.97ZM78.75,68.63c-.04-.64-.02-1.28-.13-1.9-.19-1.17-1.22-1.75-2.32-1.35-.3.11-.57.28-.85.45-2.61,1.62-5.23,3.25-7.83,4.88-.24.15-.47.31-.67.5-1,.93-1,1.81-.03,2.77.55.54,1.24.88,1.88,1.28,2.41,1.5,4.81,3.01,7.25,4.46,1.18.7,2.32.12,2.58-1.24.07-.35.06-.72.07-1.07.02-1.01.02-1.01.99-1.27.12-.03.23-.06.35-.09,3.63-.89,6.56-2.89,8.87-5.77,2.58-3.22,3.65-6.94,3.47-11.06-.27-5.99-3.1-10.44-8.07-13.64-.53-.34-.9-.31-1.34.15-1.5,1.55-3.04,3.06-4.57,4.59-.13.13-.3.26-.19.59,2.24.68,4.12,1.97,5.41,4,1.3,2.03,1.72,4.27,1.36,6.65-.5,3.32-3.39,6.61-6.22,7.06ZM41.21,51.12c.04.77.02,1.45.12,2.11.18,1.17,1.22,1.75,2.32,1.34.3-.11.57-.28.84-.45,2.61-1.62,5.22-3.26,7.84-4.88.34-.21.65-.46.92-.76.65-.75.66-1.52.01-2.26-.35-.39-.76-.69-1.21-.97-2.35-1.45-4.69-2.91-7.03-4.36-.44-.27-.88-.56-1.34-.79-.72-.37-1.27-.25-1.84.32-.5.49-.57,1.12-.59,1.77-.04,1.22-.04,1.24-1.25,1.54-3.5.87-6.4,2.74-8.65,5.49-3.64,4.45-4.65,9.58-3.23,15.11,1.1,4.29,3.74,7.54,7.53,9.84.79.48.81.47,1.5-.22,1.42-1.41,2.83-2.82,4.24-4.24.21-.21.53-.37.53-.8-2.06-.63-3.84-1.7-5.17-3.46-1.33-1.76-2-3.75-1.86-5.93.26-4.13,2.72-7.37,6.33-8.41ZM67.55,43.36c-.23-.23-.52-.12-.78-.12-1.92-.01-3.84,0-5.76,0-.4,0-.8,0-1.19.08-1.64.3-2.89,1.71-3.05,3.42-.13,1.4.94,3.01,2.33,3.59.83.35,1.47.26,2.14-.44,1.91-1.99,3.89-3.91,5.83-5.87.19-.19.47-.32.48-.66ZM52.51,76.54c.92,0,1.79,0,2.66,0,1.52,0,3.04.05,4.55-.04,1.83-.11,3.2-1.49,3.43-3.28.19-1.55-.82-3.18-2.35-3.79-.74-.3-1.32-.23-1.92.39-1.94,2.01-3.94,3.97-5.91,5.94-.16.16-.38.3-.45.77Z" stroke-width="0"/>
</svg>