<?xml version="1.0" encoding="UTF-8"?>
<svg id="Layer_14_Image" data-name="Layer 14 Image" xmlns="http://www.w3.org/2000/svg" viewBox="0 0 119.93 119.98">
  <path d="M62.4,119.98C26.77,119.89,0,93.19,0,59.98,0,26.77,26.76-.02,59.99,0c33.18.02,59.99,26.74,59.94,60.09-.03,16.44-5.97,30.66-17.6,42.3-11.64,11.65-25.91,17.28-39.93,17.59ZM78.68,68.77c0-.7-.03-1.22,0-1.73.09-1.3-1.47-2.33-2.8-1.49-2.82,1.78-5.66,3.5-8.49,5.26-.3.19-.57.45-.79.72-.59.73-.54,1.56.11,2.24.36.37.74.7,1.2.97.86.49,1.69,1.04,2.53,1.56,1.85,1.14,3.69,2.31,5.56,3.42,1.31.77,2.54.07,2.65-1.45.03-.44.03-.88.02-1.32,0-.38.16-.58.53-.66.73-.16,1.49-.27,2.18-.54,3.04-1.19,5.62-3.02,7.66-5.61,3-3.8,3.76-8.19,3.21-12.8-.37-3.05-1.7-5.85-3.75-8.2-3.31-3.77-7.49-5.81-12.53-5.89-5.12-.08-10.24-.02-15.36-.03-.65,0-1.25.16-1.82.45-1.97,1.01-2.6,3.43-1.4,5.26.76,1.16,1.83,1.69,3.2,1.69,4.92,0,9.84,0,14.76,0,1.81,0,3.51.4,5.09,1.33,3.08,1.82,4.51,4.62,4.63,8.07.05,1.51-.33,3.05-1.13,4.42-1.18,2.03-2.82,3.5-5.28,4.34ZM41.26,51c0,.75.05,1.3,0,1.85-.13,1.32,1.48,2.42,2.86,1.52,2.76-1.78,5.58-3.48,8.38-5.2.38-.24.7-.54.95-.89.47-.65.39-1.46-.18-2.06-.35-.37-.74-.7-1.19-.98-1.53-.92-3.03-1.88-4.55-2.82-1.25-.77-2.48-1.57-3.75-2.28-1.08-.61-2.27.02-2.47,1.26-.06.35-.04.72-.05,1.08-.02.96,0,1.01-.92,1.18-1.54.28-3,.85-4.3,1.63-3.84,2.3-6.56,5.52-7.86,9.9-.72,2.43-.75,4.88-.48,7.32.32,2.8,1.51,5.3,3.24,7.53,1.66,2.15,3.72,3.83,6.16,4.97,2.31,1.08,4.79,1.55,7.36,1.54,4.84-.03,9.68,0,14.52,0,.2,0,.4,0,.6,0,1.71-.02,3.26-1.35,3.51-2.97.33-2.21-.94-3.66-2.5-4.21-.54-.19-1.08-.22-1.64-.22-4.84,0-9.68-.01-14.52,0-2.95.01-5.39-1.06-7.34-3.29-1.96-2.24-2.59-4.88-2.06-7.72.64-3.45,2.76-5.76,6.22-7.13Z" stroke-width="0"/>
</svg>