<?xml version="1.0" encoding="UTF-8"?>
<svg id="Layer_14_Image" data-name="Layer 14 Image" xmlns="http://www.w3.org/2000/svg" viewBox="0 0 119.96 119.99">
  <path d="M60.04,0c32.96.11,59.99,26.58,59.92,60.11-.06,33.46-27.09,59.86-60.03,59.88C26.81,120.01-.05,93.01,0,59.83.05,26.84,26.99,0,60.04,0ZM41.2,43.32c-.41.41-.97.35-1.45.53-.48.18-1.02.24-1.49.44-5.18,2.18-8.73,5.87-10.14,11.36-1.29,5.03-.54,9.79,2.59,14.01,3.42,4.63,8.1,6.86,13.83,6.89,4.8.02,9.6,0,14.4,0,.52,0,1.03-.02,1.54-.17,1.61-.47,2.71-1.91,2.69-3.56-.02-1.63-1.16-3.07-2.77-3.5-.55-.15-1.1-.16-1.67-.16-4.6,0-9.2,0-13.8,0-.84,0-1.69,0-2.51-.16-3.74-.71-6.87-3.88-7.41-7.44-.63-4.22,1.24-8.06,4.87-9.96.4-.21.79-.54,1.34-.39.03.67.01,1.31.1,1.94.19,1.31,1.26,1.89,2.47,1.38.26-.11.5-.26.73-.41,2.58-1.61,5.16-3.22,7.74-4.82.41-.26.79-.55,1.1-.92.54-.67.53-1.42-.04-2.07-.26-.3-.56-.58-.89-.79-2.78-1.74-5.55-3.49-8.36-5.19-1.41-.85-2.59-.21-2.79,1.44-.06.51.07,1.04-.1,1.54ZM78.84,76.44c8.94-1.85,14.6-9.6,13.47-18.73-.81-6.57-6.99-13.49-12.29-13.73v7.61c3.92,2.41,5.71,5.82,4.89,10.34-.6,3.32-3.38,6.26-6.11,6.72-.17-.54-.04-1.1-.11-1.64-.2-1.5-1.32-2.12-2.68-1.46-.21.11-.42.24-.62.36-2.54,1.58-5.08,3.17-7.63,4.75-.41.26-.8.54-1.11.91-.59.7-.58,1.47.04,2.16.26.29.57.57.9.78,2.74,1.72,5.48,3.44,8.25,5.12,1.48.9,2.67.26,2.86-1.46.06-.55-.09-1.12.13-1.73ZM69.6,45.69v1.35c0,3.36,0,6.72,0,10.07,0,1.54.54,2.07,2.09,2.09,1.32.02,2.64,0,3.96,0,.77,0,1.41-.23,1.8-.95.14-.47.1-.95.1-1.43,0-4.72,0-9.44,0-14.15,0-2.4.01-4.8,0-7.2,0-1.21-.53-1.77-1.74-1.81-1.2-.04-2.4,0-3.6,0-.41,0-.78.12-1.19.3-.51.63-.72,1.47-1.16,2.18-1.1,1.74-2.72,2.79-4.58,3.5-.83.32-1.19.86-1.17,1.73.02,1.4-.02,2.8.01,4.2.03,1.4.94,2.02,2.25,1.6,1.06-.34,2.03-.89,3.23-1.49ZM61.72,43.3c-.94-.08-1.73-.07-2.49.21-1.6.58-2.61,2.24-2.38,3.88.24,1.76,1.7,3.15,3.51,3.21,1.92.06,3.84.02,5.76.01.35,0,.72.12,1.04-.13.04-.24.12-.47-.08-.72-.37,0-.77-.05-1.15,0-1.51.24-2.6-.39-3.54-1.51-.41-.49-.67-.96-.66-1.6.02-1.08,0-2.15,0-3.36Z" stroke-width="0"/>
</svg>