<?xml version="1.0" encoding="UTF-8"?>
<svg id="Layer_12_Image" data-name="Layer 12 Image" xmlns="http://www.w3.org/2000/svg" viewBox="0 0 27.67 27.8">
  <path d="M9.13,7.45c2.06-2.18,4.07-4.31,6.08-6.42.23-.24.48-.47.76-.65.93-.58,1.87-.11,1.93,1,.06,1.1.03,2.21.03,3.31,0,3.86,0,7.72,0,11.7,2.53,2.52,5.12,5.08,7.68,7.65.62.62,1.28,1.21,1.82,1.92.41.54.26.98-.12,1.4-.39.43-.87.59-1.41.29-.25-.14-.47-.32-.67-.52C17.02,18.88,8.82,10.64.62,2.4-.21,1.57-.2.78.6.22c.4-.28.79-.31,1.18-.01.26.2.53.41.76.64,2.11,2.11,4.22,4.23,6.59,6.6Z" stroke-width="0"/>
  <path d="M7.35,19c-1.45,0-2.78,0-4.12,0-1.15,0-1.61-.46-1.62-1.61-.01-2.16,0-4.32,0-6.48,0-1.66.33-1.99,1.95-2,.14,0,.29,0,.4,0,4.62,4.66,9.24,9.31,13.95,14.07,0,.9,0,1.98,0,3.06,0,.67-.11,1.32-.79,1.64-.72.34-1.24-.14-1.7-.59-2.56-2.51-5.11-5.04-7.66-7.57-.17-.17-.3-.37-.42-.52Z" stroke-width="0"/>
</svg>