<?xml version="1.0" encoding="UTF-8"?>
<svg id="mute_Image" data-name="mute Image" xmlns="http://www.w3.org/2000/svg" viewBox="0 0 119.76 120.1">
  <defs>
    <style>
      .cls-1 {
        fill: #fff;
        stroke-width: 0px;
      }
    </style>
  </defs>
  <path class="cls-1" d="M59.69,0c16.24.33,30.19,5.85,41.74,17,11.59,11.19,17.23,25.14,18.33,41.07-.1,10.49-2.01,20.56-6.97,29.92-4.25,8.02-9.95,14.85-17.24,20.23-11.29,8.33-24.02,12.35-38.06,11.83-12.51-.46-23.92-4.44-33.77-12.13C7.38,95.17-.62,78.2.04,57.49c.46-14.35,5.72-27.06,15.42-37.68C27.34,6.8,42.28.36,59.69,0ZM52.4,49.35c-.53-.08-.7-.38-.92-.6-3.2-3.18-6.4-6.37-9.6-9.56-.4-.4-.79-.79-1.27-1.09-.84-.52-1.52-.45-2.28.24-.73.65-.87,1.38-.45,2.26.28.59.76,1.02,1.21,1.47,7.47,7.45,14.95,14.9,22.42,22.34,5.58,5.56,11.16,11.11,16.74,16.66.62.62,1.2,1.3,2.04,1.65.83.35,1.58.12,2.24-.64.59-.69.64-1.27.15-2.08-.31-.52-.74-.94-1.16-1.37-4.5-4.49-8.98-9-13.56-13.4-.31-.3-.69-.55-.9-1.05v-1.24c0-7.23,0-14.47,0-21.7,0-.52,0-1.04-.09-1.55-.26-1.52-1.61-2.17-2.97-1.43-.41.23-.79.55-1.14.87-.79.74-1.55,1.5-2.32,2.26-2.71,2.65-5.42,5.3-8.12,7.94ZM44.31,52.22c-.56,0-1-.01-1.44,0-.24,0-.48.05-.71.09-1.18.23-1.67.72-1.82,1.89-.05.39-.04.8-.04,1.2,0,3.12,0,6.24,0,9.36,0,.52-.02,1.04.02,1.56.1,1.47.67,2.08,2.13,2.24.63.07,1.28.06,1.92.07,1.79,0,3.59,0,5.29,0,.36.41.6.72.88,1,4.08,4.01,8.16,8.02,12.24,12.02.43.42.89.8,1.45,1.04.98.41,1.83.14,2.36-.77.24-.42.39-.88.39-1.37,0-1.88,0-3.76,0-5.52-7.6-7.65-15.12-15.22-22.67-22.82Z"/>
</svg>