<?xml version="1.0" encoding="UTF-8"?>
<svg id="Layer_11_Image" data-name="Layer 11 Image" xmlns="http://www.w3.org/2000/svg" viewBox="0 0 27.67 27.78">
  <defs>
    <style>
      .cls-1 {
        fill: #fff;
        stroke-width: 0px;
      }
    </style>
  </defs>
  <path class="cls-1" d="M8.96,7.19c2.11-2.08,4.2-4.15,6.3-6.22.26-.25.51-.51.83-.67.83-.43,1.67,0,1.81.93.05.31.03.62.03.93,0,4.44,0,8.87,0,13.31,0,.26,0,.53,0,.91,1.04,1.02,2.14,2.09,3.23,3.17,1.93,1.93,3.85,3.86,5.77,5.8.17.17.33.35.46.54.41.59.38,1.02-.12,1.52-.42.42-.97.49-1.49.15-.2-.13-.38-.28-.55-.45C17.02,18.88,8.82,10.64.62,2.39-.23,1.54-.2.72.66.18c.36-.23.7-.24,1.06-.02.29.17.54.4.77.63,1.99,2,3.98,4,5.97,6,.13.13.23.31.49.39Z"/>
  <path class="cls-1" d="M7.36,18.99c-1.43,0-2.74,0-4.05,0-1.23,0-1.68-.45-1.69-1.68,0-2.23,0-4.46,0-6.69,0-1.28.44-1.7,1.73-1.71.24,0,.48,0,.69,0,4.63,4.65,9.23,9.29,13.87,13.96,0,1.08,0,2.23,0,3.38,0,.32-.09.62-.23.89-.32.61-.9.79-1.51.5-.39-.19-.7-.49-1.01-.8-2.47-2.44-4.93-4.88-7.4-7.33-.17-.17-.3-.38-.41-.52Z"/>
</svg>