<?xml version="1.0" encoding="UTF-8"?>
<svg id="Layer_2_Image" data-name="Layer 2 Image" xmlns="http://www.w3.org/2000/svg" viewBox="0 0 119.89 119.94">
  <defs>
    <style>
      .cls-1 {
        fill: #000;
        stroke-width: 0px;
      }
    </style>
  </defs>
  <path class="cls-1" d="M59.88,119.94C26.59,119.69-.04,93.09,0,59.88.04,26.59,26.8-.04,60.01,0c33.28.04,59.92,26.8,59.88,60.01-.04,33.29-26.8,59.76-60.01,59.92ZM66.35,60.05c-.34.24-.59.38-.79.58-6,5.99-11.99,11.99-17.98,17.98-.42.42-.84.86-1.21,1.32-1.35,1.71-1.49,4.15-.43,6.09.88,1.61,3.03,3.12,5.54,2.79,1.56-.2,2.73-1,3.8-2.07,7.06-7.07,14.13-14.14,21.21-21.2.42-.42.86-.83,1.32-1.22,2.65-2.21,2.71-6.4.12-8.66-.57-.5-1.13-1.01-1.67-1.55-6.9-6.89-13.8-13.8-20.7-20.69-.45-.45-.91-.92-1.43-1.27-1.92-1.31-3.96-1.45-5.98-.29-2.02,1.15-2.94,2.97-2.8,5.3.09,1.62.94,2.84,2.05,3.94,3.97,3.95,7.92,7.91,11.88,11.87,2.29,2.29,4.58,4.58,7.07,7.07Z"/>
</svg>