<?xml version="1.0" encoding="UTF-8"?>
<svg id="Layer_14_Image" data-name="Layer 14 Image" xmlns="http://www.w3.org/2000/svg" viewBox="0 0 119.94 119.98">
        <path className="svg-path" d="M60,0c32.97.11,59.99,26.57,59.94,60.1-.05,33.46-27.07,59.91-60.02,59.88C26.69,119.94-.09,93.11,0,59.84.09,26.69,26.83.09,60,0ZM44.2,86.89c.33.13.5-.07.7-.19,2.07-1.21,4.15-2.41,6.22-3.63,8.44-4.96,16.88-9.94,25.33-14.9,4.38-2.57,8.76-5.13,13.14-7.71.35-.21.82-.32.98-.87-15.43-9.17-30.84-18.33-46.36-27.56v54.85Z" stroke-width="0"/>
      </svg>
