<?xml version="1.0" encoding="UTF-8"?>
<svg id="Layer_4_Image" data-name="Layer 4 Image" xmlns="http://www.w3.org/2000/svg" viewBox="0 0 115.06 114.93">
  <path d="M0,57.49C-.06,25.23,26.58-.02,57.54,0c30.93.02,57.25,25.11,57.52,56.9.28,32.21-25.74,57.31-56.16,58.01C26.81,115.65-.06,89.73,0,57.49ZM60.37,78.14c.56.26.97.16,1.36.16,10.84.02,21.67.04,32.51.06.88,0,1.75-.04,2.62-.23,5.96-1.27,10.5-6.88,9.31-13.69-1.36-7.76-9.03-11.5-15.67-9.21-.24.08-.48.29-.85.08-.27-1.23-.58-2.5-1.02-3.73-3.2-8.85-11.51-15.1-21.74-15.13-2.43,0-4.7.72-6.88,1.89.13,13.28.26,26.55.39,39.81ZM58.86,54.03s0,0,.01,0c-.12-4.19-.24-8.38-.36-12.57-.01-.44.02-.88-.16-1.3-.19-.45-.44-.88-1.01-.89-.59-.01-.82.45-.98.9-.18.49-.17,1.02-.19,1.54-.14,5.35-.26,10.7-.45,16.05-.19,5.43-.33,10.86.18,16.28.1,1.11.13,2.23.21,3.35.04.59.39.96.96,1.06.54.09.9-.2,1.18-.64.18-.29.2-.6.23-.92.08-1.12.17-2.23.21-3.35.13-3.19.54-6.37.45-9.57-.09-3.31-.2-6.63-.3-9.94ZM53.62,41.69c-.82-.27-1.21.06-1.46.72-.13.35-.17.69-.17,1.05-.01,1.04-.03,2.08-.05,3.11-.12,8.26-.79,16.51-.19,24.78.14,1.87.24,3.74.37,5.61.05.66.18,1.28.97,1.49.91-.24,1.25-.86,1.27-1.77.01-.92.12-1.83.16-2.75.12-2.91.48-5.81.4-8.73-.19-7.18-.38-14.37-.55-21.55-.02-.75-.18-1.41-.75-1.97ZM49.02,45.47c-.5.14-.78.48-.89,1-.1.47-.15.94-.16,1.42-.1,5.03-.08,10.07-.34,15.09-.24,4.77.24,9.49.53,14.22.04.58.21,1.09.84,1.26.69-.21.84-.73.9-1.31.16-1.55.26-3.1.48-4.64.43-3.02.48-6.04.33-9.08-.23-4.66-.43-9.33-.64-13.99-.04-1-.04-2-.19-2.99-.08-.53-.24-.93-.86-.98ZM41.12,44.48c-.59-.09-.95.15-1.1.68-.13.46-.2.93-.21,1.42-.08,4.92-.1,9.84-.3,14.75-.21,5.25.07,10.47.48,15.69.05.61.08,1.21.8,1.43.75-.54.78-.56.86-1.44.16-1.59.33-3.18.44-4.78.17-2.35.49-4.69.33-7.06-.16-2.39-.18-4.79-.27-7.19-.16-3.99-.32-7.99-.48-11.98-.02-.52-.02-1.05-.54-1.52ZM44.88,78.46c.71-.21.82-.78.88-1.4.22-2.34.47-4.68.68-7.03.09-1.03.23-2.07.2-3.1-.19-5.38-.43-10.77-.66-16.15-.07-1.56-.15-3.11-.21-4.67-.02-.58-.12-1.11-.76-1.36-.59.16-.88.55-.95,1.11-.07.55-.12,1.11-.13,1.67-.05,2.32-.03,4.63-.12,6.95-.28,7.5-.42,15,.27,22.49.06.61.11,1.19.8,1.48ZM36.8,78.49c.86-.32.89-1.02.93-1.69.19-2.95.38-5.9.55-8.84.18-3.11-.04-6.22-.15-9.34-.14-3.87-.24-7.74-.37-11.61-.02-.63,0-1.29-.53-1.73-.72-.18-.99.22-1.17.76-.16.46-.12.95-.13,1.42-.09,3.35-.1,6.71-.28,10.05-.36,6.43.03,12.85.36,19.27.03.63.07,1.29.8,1.71ZM32.82,78.4c.58-.37.66-.85.69-1.39.09-1.51.24-3.03.33-4.54.2-3.07.56-6.13.34-9.22-.11-1.51-.15-3.03-.21-4.55-.16-3.47-.32-6.95-.47-10.42-.03-.58-.16-1.1-.78-1.33-.58.35-.66.89-.69,1.47-.1,2.52-.21,5.03-.3,7.55-.17,5.03-.62,10.06-.12,15.1.2,1.99.27,3.99.4,5.98.04.56.06,1.13.8,1.36ZM29.63,77.71c.14-1.65.3-3.24.41-4.83.18-2.63.53-5.25.31-7.89-.1-1.27-.15-2.55-.21-3.83-.16-3.15-.32-6.3-.48-9.45-.03-.52-.19-.93-.72-1.08-.63.2-.72.7-.75,1.24-.08,1.84-.18,3.67-.24,5.51-.15,4.67-.68,9.32-.2,14,.19,1.91.29,3.82.42,5.73.04.54.14,1.02.68,1.25.39-.06.58-.31.78-.64ZM21.02,78.26c.66-.32.71-.66.73-1.03.13-2.67.46-5.33.68-8,.08-.94.18-1.89.1-2.86-.23-2.95-.7-5.87-.79-8.83-.01-.47-.07-.93-.62-1.38-1.44,7.43-1.46,14.69-.09,22.09ZM25.16,78.16c.29-.24.41-.51.42-.85.12-2.63.44-5.25.68-7.87.08-.9.17-1.82.09-2.75-.25-2.82-.7-5.63-.78-8.47-.01-.43-.12-.83-.64-1.38-.7,3.31-.9,6.45-1.14,9.56-.29,3.75.54,7.48.83,11.21.02.25.17.44.53.55ZM17.48,77.94c1.06-7.08,1.13-14.14-.05-21.24-.61.2-.5.69-.55,1.05-.96,6.55-.89,13.11,0,19.67.03.23.12.47.61.52ZM13.59,76.52c1.11-6.15,1.2-12.07-.16-17.99-1.41,5.51-1.28,11.06-.54,16.64.06.44.1.85.7,1.35ZM9.88,61.51c-.71.89-.48,1.74-.68,2.49-.77,2.83-.19,5.62.14,8.43.04.3.11.65.63.65.9-3.79.95-7.57-.09-11.56Z" stroke-width="0"/>
</svg>