<?xml version="1.0" encoding="UTF-8"?>
<svg id="Layer_2_Image" data-name="Layer 2 Image" xmlns="http://www.w3.org/2000/svg" viewBox="0 0 115.79 115.5">
  <defs>
    <style>
      .cls-1 {
        fill: #fff;
        stroke-width: 0px;
      }
    </style>
  </defs>
  <path class="cls-1" d="M0,57.3c.35-15.52,6-29.2,17.31-40.45C28.61,5.6,42.41-.09,58.24,0c15.75.09,29.44,5.9,40.58,17.2,12.77,12.95,18.51,28.76,16.61,46.63-2.78,26.21-24.32,51.08-57.2,51.66-15.47.27-29.13-5.33-40.28-16.13C6.26,88.04.27,74.09,0,57.3ZM49.4,30.44c-9.25-.08-18.37.88-27.3,3.37-2.97.83-4.53,3.87-3.61,7.28.61,2.29,3.7,4.09,5.98,3.39,6.97-2.16,14.15-3.08,21.4-3.31,8.62-.26,17.17.48,25.65,2.31,7.18,1.55,14.03,3.84,20.44,7.43,2.85,1.6,5.86.85,7.34-1.78,1.54-2.74.58-6.01-2.15-7.64-5.9-3.53-12.28-5.93-18.89-7.62-9.45-2.42-19.09-3.58-28.85-3.44ZM22.16,57.62c-.02,2.35.79,3.58,2.88,4.42,1.81.74,3.39-.27,5.06-.66,8.61-2.02,17.28-2.71,26.13-1.77,10.16,1.08,19.72,3.88,28.62,8.92,2.57,1.46,5.06,1.04,6.33-.99,1.53-2.44.86-5.08-1.79-6.76-4.04-2.55-8.39-4.5-12.88-6.04-8.36-2.87-17.01-4.3-25.85-4.58-7.86-.25-15.6.66-23.21,2.57-2.61.66-5.45,1.31-5.3,4.88ZM47.37,69.13c-5.5-.1-12.51.92-19.47,2.34-2.33.47-3.77,1.82-3.37,4.35.41,2.63,2.2,3.3,4.61,2.77.58-.13,1.14-.36,1.72-.47,9.21-1.68,18.43-2.58,27.8-1.22,7.17,1.04,13.86,3.29,20.08,6.96,2.21,1.3,4.27,1.09,5.42-.72,1.17-1.85.55-4.14-1.58-5.4-10.34-6.18-21.63-8.7-35.2-8.6Z"/>
</svg>