<?xml version="1.0" encoding="UTF-8"?>
<svg id="Layer_1_Image" data-name="Layer 1 Image" xmlns="http://www.w3.org/2000/svg" viewBox="0 0 115.13 115.1">
  <path d="M64,42.29c12.44-14.14,24.82-28.21,37.21-42.29h10.18c-14.33,16.3-28.56,32.48-42.85,48.75,15.51,22.09,31,44.16,46.59,66.36h-34.32c-10.41-14.82-20.84-29.68-31.37-44.66-13.18,14.99-26.23,29.84-39.26,44.66H0c15.03-17.09,29.93-34.04,44.93-51.1C29.99,42.72,15.04,21.43,0,.02h34.32c9.84,14.02,19.73,28.09,29.69,42.27ZM101.17,107.92C77.19,74.36,53.3,40.93,29.44,7.54h-15.57c23.99,33.58,47.88,67.01,71.72,100.39h15.58Z" stroke-width="0"/>
</svg>