<?xml version="1.0" encoding="UTF-8"?>
<svg id="unmute_Image" data-name="unmute Image" xmlns="http://www.w3.org/2000/svg" viewBox="0 0 119.76 120.14">
  <defs>
    <style>
      .cls-1 {
        fill: #fff;
        stroke-width: 0px;
      }
    </style>
  </defs>
  <path class="cls-1" d="M59.53,0c16.3.3,30.25,5.79,41.82,16.93,11.64,11.21,17.31,25.19,18.4,41.16-.24,5.46-.51,10.9-1.85,16.25-1.33,5.35-3.31,10.42-6,15.22-2.71,4.83-6.04,9.19-9.94,13.11-3.88,3.89-8.24,7.18-13.02,9.86-4.73,2.65-9.75,4.66-15.05,5.88-5.41,1.25-10.88,1.93-16.44,1.67-12.5-.59-23.91-4.47-33.76-12.17C7.41,95.18-.59,78.25.03,57.59c.43-14.39,5.71-27.14,15.43-37.79C27.32,6.83,42.22.4,59.53,0ZM66.87,60.51s.02,0,.03,0c0-6.4,0-12.79,0-19.19,0-.6-.05-1.2-.17-1.79-.29-1.37-1.48-1.93-2.74-1.32-.59.29-1.04.74-1.49,1.19-3.87,3.87-7.76,7.73-11.59,11.64-.89.91-1.82,1.29-3.09,1.21-1.63-.11-3.28-.11-4.91-.05-1.58.05-2.31.84-2.39,2.4-.02.4-.02.8-.02,1.2.01,3.2.03,6.4.05,9.59,0,.48,0,.96.08,1.43.16.96.71,1.59,1.73,1.71.4.05.79.1,1.19.1,1.48.01,2.96.06,4.44-.01,1.17-.06,2.04.33,2.86,1.16,3.84,3.9,7.74,7.75,11.61,11.62.42.42.85.85,1.37,1.15,1.23.69,2.41.24,2.85-1.11.2-.61.22-1.25.22-1.9,0-6.36,0-12.71,0-19.07ZM79.67,60.44s0,0,.01,0c0-2.08,0-4.15,0-6.23,0-2.44,0-4.87,0-7.31,0-.72-.07-1.43-.46-2.07-.28-.46-.58-.86-1.18-.87-.66-.01-1,.42-1.28.92-.32.58-.4,1.21-.4,1.85,0,9.15,0,18.29,0,27.44,0,.56.06,1.12.3,1.63.28.59.62,1.15,1.39,1.14.71,0,1.02-.56,1.3-1.09.36-.7.33-1.47.33-2.23,0-4.39,0-8.79,0-13.18ZM73.43,48.85c-.95.7-1.12,1.74-1.12,2.85,0,5.71,0,11.42,0,17.13,0,.24.01.48.03.72.09,1.08.55,1.9,1.65,2.26,1.22-.48,1.59-1.45,1.59-2.67,0-5.95,0-11.9,0-17.85,0-.48-.05-.95-.25-1.4-.4-.92-.74-1.12-1.9-1.04ZM69.92,68.41c1.21-.38,1.54-1.33,1.56-2.42.05-2.04.04-4.07.04-6.11,0-1.8.02-3.6-.05-5.39-.05-1.19-.81-2.13-1.56-2.13-.75,0-1.46.97-1.55,2.14-.04.56-.04,1.12-.06,1.68-.13,3.27-.08,6.55.04,9.82.04,1.11.41,2.02,1.59,2.42Z"/>
</svg>