<?xml version="1.0" encoding="UTF-8"?>
<svg id="Layer_11_Image" data-name="Layer 11 Image" xmlns="http://www.w3.org/2000/svg" viewBox="0 0 24.47 27.85">
  <path d="M16.46,13.87c0,3.96,0,7.91,0,11.87,0,.43.03.86-.14,1.28-.32.8-.98,1.05-1.73.64-.36-.2-.65-.49-.93-.78-2.5-2.47-5-4.94-7.49-7.43-.31-.31-.62-.45-1.06-.44-1.14.03-2.29.02-3.44,0-1.14,0-1.61-.47-1.63-1.61C.02,15.12,0,12.84,0,10.56c0-1.22.53-1.75,1.75-1.75,1.07,0,2.15,0,3.22.06.56.03.93-.17,1.31-.56,2.45-2.46,4.91-4.9,7.38-7.34.25-.25.51-.51.81-.71.9-.61,1.88-.16,1.97.93.07.93.05,1.87.05,2.8,0,3.29,0,6.57,0,9.86,0,0,0,0-.01,0Z" stroke-width="0"/>
  <path d="M24.47,13.96c0,2.69,0,5.37,0,8.06,0,.55,0,1.11-.29,1.6-.42.72-1.05.73-1.5.03-.21-.33-.27-.7-.27-1.1,0-2.9-.03-5.8-.03-8.7,0-2.66.01-5.32.03-7.98,0-.48-.05-.96.17-1.41.18-.38.42-.75.88-.74.42,0,.64.36.82.72.22.45.2.93.2,1.41,0,2.71,0,5.42,0,8.13Z" stroke-width="0"/>
  <path d="M21.91,13.84c0,1.8,0,3.6,0,5.4,0,.31-.01.62-.14.91-.18.39-.42.78-.85.78-.47,0-.72-.4-.9-.82-.14-.34-.14-.7-.14-1.06,0-2.47,0-4.94,0-7.41,0-1.15,0-2.3.02-3.45,0-.47.14-.9.48-1.24.38-.38.67-.38,1.05-.01.39.37.5.85.5,1.37,0,1.85,0,3.69,0,5.54,0,0,0,0,0,0Z" stroke-width="0"/>
  <path d="M19.4,13.92c0,.84,0,1.68,0,2.52,0,.34-.01.67-.04,1.01-.06.76-.54,1.41-1.01,1.39-.47-.02-.96-.69-.98-1.43-.07-2.35-.07-4.7,0-7.05.02-.78.54-1.48,1.02-1.46.46.01.94.68.96,1.43.03,1.2,0,2.39,0,3.59.01,0,.02,0,.04,0Z" stroke-width="0"/>
</svg>