<?xml version="1.0" encoding="UTF-8"?>
<svg id="Layer_6_Image" data-name="Layer 6 Image" xmlns="http://www.w3.org/2000/svg" viewBox="0 0 115.49 84.64">
  <defs>
    <style>
      .cls-1 {
        fill: #fff;
        stroke-width: 0px;
      }
    </style>
  </defs>
  <path class="cls-1" d="M35.32,55.45c-.14,1.41-.1,2.72,0,4.02.1,1.38.28,2.75.41,4.12.14,1.53.29,3.05.58,4.58.39,2.09,1.06,4.16,1.07,6.3.01,1.57-.35,3.11-1.11,4.54-1.13,2.14-2.93,3.62-5.04,4.54-3.01,1.3-6.14,1.5-9.34.32-1.99-.73-3.54-1.95-4.85-3.49-1.03-1.2-1.69-2.68-1.73-4.31-.05-1.88-.07-3.76.03-5.63.05-.94.32-1.89.21-2.84-.39-3.3.04-6.68-.96-9.92.26-1.9-.73-3.64-.75-5.51,0-.43-.16-.85-.28-1.27-.08-.29-.28-.51-.57-.55-1.06-.14-2.06-.5-3.14-.59-1.8-.15-3.64-.1-5.41-.58-.15-.04-.31-.05-.47-.07q-2.22-.2-3.75-1.88c-.13-.66-.19-1.33-.19-2.01,0-6.36.02-12.72-.01-19.07,0-1.25.29-2.23,1.3-3.03.52-.42,1.02-.66,1.7-.73,1.8-.18,3.62-.28,5.41-.65.31-.06.64,0,.96,0,.88,0,1.74-.02,2.6-.25,1.14-.31,2.36-.25,3.51-.51,1.58-.35,3.2-.46,4.77-.86,1.68-.42,3.4-.66,5.08-1.07,1.11-.27,2.19-.62,3.3-.88,1.34-.31,2.68-.63,3.98-1.06,1.12-.37,2.26-.7,3.38-1.06,1.6-.51,3.21-.99,4.78-1.6,1.56-.61,3.18-1.06,4.71-1.79,1.2-.57,2.49-.98,3.73-1.48,1.37-.56,2.72-1.17,4.08-1.76,2.2-.95,4.38-1.95,6.53-3.02,2.29-1.15,4.57-2.34,6.78-3.65,1.46-.86,2.95-1.69,4.44-2.49.65-.35,1.44-.27,2.1-.11,1.54.37,2.66,2.04,2.66,3.7,0,10.28-.01,20.55-.01,30.83,0,11,0,21.99.02,32.99,0,1.84-1.87,3.83-3.62,3.74-.65-.04-1.3-.3-1.89-.63-2.56-1.41-5.06-2.92-7.67-4.23-2.42-1.21-4.85-2.41-7.32-3.54-1.78-.81-3.55-1.69-5.36-2.43-2.47-1.01-4.91-2.09-7.48-2.89-.88-.27-1.77-.66-2.65-1.01-1.27-.51-2.59-.9-3.89-1.32-.13-.04-.3.04-.59.09ZM68.19,61.73c.82-.39.61-1.06.61-1.62,0-16.36,0-32.72,0-49.08,0-.39.12-.81-.2-1.14-.32-.2-.61-.09-.9.08-3.69,2.16-7.56,3.97-11.43,5.76-3.12,1.44-6.36,2.63-9.56,3.9-3.12,1.24-6.3,2.32-9.51,3.28-2.76.83-5.51,1.71-8.34,2.3-1.08.22-2.16.5-3.24.76-1.69.4-3.37.87-5.1,1.08-1.3.16-1.39.2-1.39,1.54,0,4.8,0,9.6,0,14.4,0,.39-.09.81.28,1.26,17.19,2.97,33.32,9.22,48.77,17.49ZM20.87,52.1c.64,1.5.21,3.28.93,4.87-.07,2.52.35,5.01.51,7.52.2,3.23.15,6.47-.29,9.68-.17,1.22.43,2.02,1.28,2.61,1.97,1.39,4.97,1.18,6.4-.64.73-.93.97-1.65.49-2.81-.1-.25-.26-.48-.27-.78-.04-1.9-.93-3.68-.79-5.61,0-.07-.06-.15-.08-.22-.18-1.2-.49-2.4-.52-3.61-.08-2.87-.03-5.75-.04-8.63,0-.35.08-.72-.1-1.04-.38-.24-5.7-1.69-6.33-1.71-.39-.01-.81-.12-1.19.38ZM7.05,42.61c1.65.41,3.39.41,5.05.52.34-.33.36-.64.36-.97,0-4.28,0-8.55,0-12.83,0-.8-.18-1-1-.96-1.24.05-2.47.15-3.7.28-.77.08-1.12.56-1.09,1.29.15,3.87.16,7.74-.01,11.61-.02.4.14.68.4,1.06Z"/>
  <path class="cls-1" d="M100.02.09c1.28-.13,2.33.46,2.83,1.45.67,1.33.88,2.85-.28,4.13-1.29,1.42-2.62,2.8-3.95,4.18-2.63,2.74-5.27,5.47-7.91,8.2-.25.26-.49.53-.77.76-1.19,1-2.42,1.17-3.65.5-1.39-.75-2.03-1.93-1.88-3.44.08-.81.52-1.43,1.04-1.97,1.47-1.52,2.89-3.09,4.31-4.66,1.74-1.93,3.66-3.67,5.39-5.6.74-.83,1.49-1.65,2.25-2.46.73-.77,1.57-1.21,2.62-1.08Z"/>
  <path class="cls-1" d="M87.68,51.12c1.1.11,1.97.59,2.72,1.37,2.94,3.05,5.9,6.08,8.85,9.13,1.08,1.12,2.15,2.26,3.2,3.41,1.3,1.44,1.22,3.34-.06,4.62-1.34,1.35-3.21,1.44-4.6.12-1.53-1.46-3.03-2.97-4.46-4.53-1.76-1.91-3.6-3.74-5.41-5.62-.91-.95-1.84-1.9-2.71-2.88-.89-1.01-1.16-2.21-.6-3.45.59-1.29,1.63-2.03,3.06-2.18Z"/>
  <path class="cls-1" d="M103.26,37.93c-2.87,0-5.75,0-8.62,0-1.18,0-2.19-.33-2.93-1.31-.76-1.01-.93-2.13-.45-3.27.54-1.27,1.59-1.99,2.96-2.12.87-.08,1.76-.02,2.63-.02,4.95,0,9.9,0,14.85,0,1.48,0,2.6.57,3.36,1.87,1.04,1.78.12,4.08-1.88,4.68-.54.16-1.1.19-1.66.19-2.75,0-5.51,0-8.26,0Z"/>
</svg>