<?xml version="1.0" encoding="UTF-8"?>
<svg id="Layer_8_Image" data-name="Layer 8 Image" xmlns="http://www.w3.org/2000/svg" viewBox="0 0 119.39 119.31">
  <defs>
    <style>
      .cls-1 {
        fill: #fff;
        stroke-width: 0px;
      }
    </style>
  </defs>
  <path class="cls-1" d="M59.8,0c1.77.05,3.69-.05,5.6.17,15.34,1.8,28.33,8.24,38.69,19.75,7.3,8.12,11.92,17.62,14.03,28.33.36,1.84.5,3.72.87,5.55.65,3.22.29,6.45.31,9.68,0,.67-.24,1.33-.33,2-.77,5.84-2.06,11.54-4.36,17-2.84,6.74-6.74,12.78-11.79,18.08-6.71,7.05-14.66,12.17-23.85,15.34-3.82,1.32-7.72,2.3-11.76,2.7-.6.06-1.18.2-1.76.32-3.41.69-6.85.24-10.28.3-9.04-1.26-17.75-3.52-25.68-8.26-8.9-5.32-16.02-12.37-21.29-21.3-3.91-6.62-6.36-13.75-7.53-21.34C.04,64.24-.15,60.12.12,56.01c.75-11.22,4.25-21.5,10.74-30.71,6.51-9.23,14.98-16.09,25.36-20.56,5.09-2.19,10.4-3.56,15.9-4.32,2.51-.35,5.01-.39,7.67-.42ZM74.46,82.01v-44.89h-11.6c-.09.14-.16.21-.17.28-.03.32-.05.64-.04.96.05,14.47-.1,28.94.08,43.4,0,.04.03.08.05.11.02.03.06.05.17.15h11.5ZM56.26,37.44h-11.48v44.29c3.85-.01,7.66.03,11.48-.03v-44.25Z"/>
</svg>