<?xml version="1.0" encoding="UTF-8"?>
<svg id="Layer_6_Image" data-name="Layer 6 Image" xmlns="http://www.w3.org/2000/svg" viewBox="0 0 78.53 115.16">
  <defs>
    <style>
      .cls-1 {
        fill: #fff;
        stroke-width: 0px;
      }
    </style>
  </defs>
  <path class="cls-1" d="M64.18,39.68c0,5.36.17,10.72-.04,16.07-.33,8.56-4.05,15.3-11.45,19.84-3.29,2.02-6.94,2.92-10.75,3.33-2.68.29-5.32.21-7.97-.24-4.67-.79-8.69-2.85-12.11-6.08-4.48-4.23-7.12-9.34-7.48-15.57-.06-1.04-.12-2.07-.12-3.11,0-9.95-.05-19.91.01-29.86.04-7.11,2.66-13.14,7.95-17.94,3.14-2.85,6.86-4.57,10.95-5.64,1.52-.4,3-.45,4.51-.46.92,0,1.84.01,2.76,0,5.84-.11,10.85,2.06,15.29,5.67,4.27,3.49,6.88,8,7.94,13.43.45,2.32.55,4.67.54,7.02,0,4.52,0,9.03,0,13.55h-.03ZM57.38,43.16c-.51-.23-.92-.15-1.31-.15-2.4,0-4.8-.01-7.2,0-.74,0-1.43-.14-2.08-.46-1.18-.56-1.88-1.55-1.94-2.82-.05-1.26.53-2.31,1.69-2.96.68-.39,1.41-.52,2.19-.52,2.52.01,5.04,0,7.56,0,.35,0,.72.11,1.1-.23-.31-2.37-.02-4.8-.03-7.35-.95,0-1.82.01-2.69,0-1.07-.02-2.14.06-3.22-.19-1.85-.42-3.09-1.74-3.04-3.34.06-1.66,1.32-2.92,3.17-3.21,1.82-.28,3.64-.12,5.48-.11.35-.8,0-1.52-.19-2.23-1.6-6.08-5.44-10.13-11.37-12.08-3.38-1.11-6.95-1.12-10.41-.49-6.1,1.1-10.41,4.61-12.84,10.35-.57,1.35-.93,2.77-1.05,4.41,1.32,0,2.55,0,3.77,0,.88,0,1.76.06,2.6.31,1.46.43,2.47,1.79,2.42,3.21-.06,1.52-1.28,2.87-2.8,3.17-1.51.3-3.02.17-4.53.21-.47.01-.95-.12-1.52.17v7.26c.53.23.94.14,1.33.14,2.56,0,5.12-.02,7.68.02,1.75.02,3.23,1.35,3.43,2.95.2,1.63-.91,3.11-2.68,3.61-.47.13-.94.18-1.42.17-2.4,0-4.8,0-7.2,0-.39,0-.8-.1-1.23.16v7.3c.44.26.85.16,1.24.16,1.4.01,2.8-.03,4.2.02,2.52.09,4.11,2.33,3.26,4.54-.49,1.28-1.83,2.16-3.42,2.18-1.67.02-3.34,0-4.97,0-.26.6-.11,1.06,0,1.52.25,1.05.58,2.07,1,3.06,1.74,4.13,4.62,7.1,8.8,8.83,3.08,1.27,6.28,1.35,9.52,1.39,6.85.09,13.34-4.3,15.76-11.15.4-1.13.84-2.3.77-3.5-.4-.25-.73-.15-1.04-.15-1.44-.01-2.88.03-4.32-.02-1.8-.05-3.32-1.51-3.43-3.23-.1-1.52,1.28-3.17,2.95-3.45.62-.1,1.28-.04,1.92-.05,1.35,0,2.69,0,4.08,0v-7.47Z"/>
  <path class="cls-1" d="M42.76,93.29v15.02c.47.26.92.14,1.35.14,5.44.01,10.88,0,16.32.01,1.46,0,2.66.51,3.36,1.87.72,1.41.52,2.58-.63,3.69-.43.41-.92.76-1.39,1.14H16.63c-.44-.36-.93-.7-1.35-1.12-.92-.92-1.24-2.02-.78-3.28.48-1.33,1.45-2.07,2.83-2.27.35-.05.72-.03,1.08-.03,5.32,0,10.64,0,15.96,0,.4,0,.79,0,1.29,0v-14.95c-.55-.44-1.34-.44-2.07-.56-5.68-.99-11.03-2.84-15.87-6.04-5.05-3.34-9.13-7.61-12.24-12.79-2.64-4.39-4.26-9.13-5.16-14.19C-.06,57.86.1,55.84,0,53.8c-.06-1.38,1.09-2.72,2.52-3.1,1.22-.33,2.72.29,3.42,1.43.47.77.67,1.6.7,2.5.12,2.95.47,5.86,1.34,8.7,2.09,6.82,5.96,12.41,11.63,16.73,4.07,3.11,8.66,5.13,13.69,5.99,4.07.7,8.17.74,12.25-.1,10.87-2.22,18.54-8.52,23.35-18.4,1.51-3.1,2.3-6.42,2.69-9.86.16-1.42.02-2.87.41-4.27.52-1.89,1.98-3.02,3.63-2.78,1.67.23,2.9,1.71,2.9,3.58.01,8.73-2.77,16.53-7.98,23.47-4.92,6.55-11.33,11.07-19.07,13.71-2.65.9-5.4,1.37-8.16,1.77-.15.02-.31.07-.56.12Z"/>
</svg>