<?xml version="1.0" encoding="UTF-8"?>
<svg id="Layer_6_Image" data-name="Layer 6 Image" xmlns="http://www.w3.org/2000/svg" viewBox="0 0 119.53 119.94">
  <defs>
    <style>
      .cls-1 {
        fill: #fff;
        stroke-width: 0px;
      }
    </style>
  </defs>
  <path class="cls-1" d="M59.81,0c32.72.26,58.71,26.03,59.69,58.03,1.06,34.66-26.63,62.18-60.2,61.91C26.66,119.68-.43,93.21,0,59.14.42,26.4,26.76.24,59.81,0ZM45.83,37.27v45.74c13.13-7.59,26.1-15.08,38.95-22.51.34-.82-.12-1.07-.59-1.33-2.84-1.56-5.54-3.37-8.42-4.86-2.19-1.14-4.3-2.44-6.41-3.73-1.97-1.2-4.03-2.24-6-3.43-1.95-1.17-3.95-2.24-5.88-3.42-1.05-.64-2.09-1.3-3.15-1.94-2.42-1.46-4.94-2.75-7.39-4.16-.36-.21-.59-.59-1.11-.37Z"/>
</svg>