<?xml version="1.0" encoding="UTF-8"?>
<svg id="Layer_2_Image" data-name="Layer 2 Image" xmlns="http://www.w3.org/2000/svg" viewBox="0 0 115.13 81.17">
  <defs>
    <style>
      .cls-1 {
        fill: #fff;
        stroke-width: 0px;
      }
    </style>
  </defs>
  <path class="cls-1" d="M59.83,81.17c-1.85,0-2.85,0-3.85,0-11.36-.05-22.69-.72-34.02-1.48-4.38-.29-8.91-.39-12.89-2.76-5.21-3.1-6.85-8.14-7.64-13.75C.04,53.2-.21,43.16.14,33.11c.22-6.51.78-13.02,2.05-19.44C3.42,7.51,9.47,2.8,16.23,2.15c9.44-.91,18.89-1.2,28.34-1.75,7.55-.44,15.11-.54,22.61-.2,10.16.47,20.36.5,30.49,1.72,10.01,1.2,14.76,6.23,16.05,16.45,1.14,9.01,1.58,18.03,1.33,27.09-.22,7.91-.62,15.83-2.68,23.53-1.43,5.32-7.13,9.5-12.73,10.1-9.03.97-18.09,1.25-27.14,1.77-4.52.26-9.02-.06-12.67.3ZM46.52,57.86c10.01-5.77,19.83-11.42,29.95-17.24-10.3-5.92-20.06-11.52-29.95-17.21v34.45Z"/>
</svg>