<?xml version="1.0" encoding="UTF-8"?>
<svg id="Layer_11_Image" data-name="Layer 11 Image" xmlns="http://www.w3.org/2000/svg" viewBox="0 0 24.47 27.85">
  <defs>
    <style>
      .cls-1 {
        fill: #000;
        stroke-width: 0px;
      }
    </style>
  </defs>
  <path class="cls-1" d="M16.46,13.87c0,3.96,0,7.91,0,11.87,0,.43.03.86-.14,1.28-.32.8-.98,1.05-1.73.64-.36-.2-.65-.49-.93-.78-2.5-2.47-5-4.94-7.49-7.43-.31-.31-.62-.46-1.06-.45-1.14.03-2.29.02-3.44,0-1.14,0-1.61-.47-1.62-1.61C.02,15.12,0,12.84,0,10.57c0-1.23.53-1.75,1.75-1.75,1.07,0,2.15,0,3.22.06.52.02.89-.13,1.26-.5,2.46-2.48,4.94-4.94,7.42-7.39.25-.25.51-.51.81-.71.9-.61,1.88-.16,1.97.93.08.93.05,1.87.05,2.8,0,3.29,0,6.57,0,9.86,0,0,0,0-.01,0Z"/>
  <path class="cls-1" d="M24.47,13.96c0,2.71,0,5.42,0,8.13,0,.55-.01,1.11-.33,1.59-.42.65-.98.66-1.42.02-.24-.35-.31-.74-.31-1.16,0-2.9-.03-5.8-.03-8.7,0-2.69.01-5.37.03-8.06,0-.48-.04-.97.19-1.41.18-.35.42-.69.85-.68.39.01.61.33.79.66.24.46.24.97.24,1.47,0,2.71,0,5.42,0,8.13Z"/>
  <path class="cls-1" d="M20.91,20.97c-.82-.29-1.03-.94-1.03-1.71,0-2.54,0-5.09,0-7.63,0-1.03,0-2.06,0-3.09,0-.31-.01-.62.1-.92.17-.48.41-.96.95-.94.53.02.78.51.92.99.07.22.07.47.07.71,0,3.65,0,7.29,0,10.94,0,.75-.23,1.36-1,1.66Z"/>
  <path class="cls-1" d="M19.36,13.93c0,1.15.02,2.3,0,3.45-.02.81-.52,1.49-1.01,1.46-.47-.03-.95-.69-.97-1.43-.07-2.35-.07-4.7,0-7.05.02-.78.54-1.48,1.02-1.46.46.02.92.69.96,1.44.03.6.03,1.2.03,1.8,0,.6,0,1.2,0,1.8-.01,0-.02,0-.03,0Z"/>
</svg>