<?xml version="1.0" encoding="UTF-8"?>
<svg id="Layer_6_Image" data-name="Layer 6 Image" xmlns="http://www.w3.org/2000/svg" viewBox="0 0 114.59 105.92">
  <defs>
    <style>
      .cls-1 {
        fill: #010101;
        stroke-width: 0px;
      }
    </style>
  </defs>
  <path class="cls-1" d="M37.16,93.96c-2.3,1.65-4.67,3.2-7.14,4.59-5.9,3.32-12.12,5.73-18.83,6.77-1.3.2-2.61.38-3.91.56-1.08.15-2.17-.37-2.63-1.27-.48-.93-.28-2.02.64-2.82,1.21-1.05,2.32-2.21,3.34-3.44,2.57-3.09,4.42-6.54,5.13-10.54.43-2.43.37-4.85-.16-7.26-.16-.74-.58-1.29-1.09-1.82-3.66-3.86-6.64-8.19-8.81-13.06-1.92-4.3-3.14-8.79-3.53-13.49-.98-11.85,2.64-22.23,10.09-31.34,6.11-7.47,13.85-12.7,22.77-16.26C39.38,2.04,46,.6,52.82.16c13.75-.9,26.61,2.05,38.39,9.27,7.96,4.88,14.3,11.37,18.64,19.71,2.19,4.22,3.68,8.67,4.32,13.39,1.78,13.04-2.02,24.41-10.4,34.35-6.33,7.51-14.34,12.66-23.48,16.07-5.15,1.92-10.47,3.13-15.95,3.68-9.07.92-17.95.1-26.66-2.55-.15-.05-.31-.07-.5-.12ZM61.62,74.91v-30.75h-8.65v30.75h8.65ZM57.3,33.05c3.66,0,6.67-3.02,6.62-6.62-.05-3.61-2.99-6.56-6.57-6.59-3.64-.03-6.65,2.95-6.68,6.6-.04,3.61,2.97,6.61,6.63,6.61Z"/>
</svg>