<?xml version="1.0" encoding="UTF-8"?>
<svg id="Layer_2_Image" data-name="Layer 2 Image" xmlns="http://www.w3.org/2000/svg" viewBox="0 0 119.89 119.94">
  <defs>
    <style>
      .cls-1 {
        fill: #fff;
        stroke-width: 0px;
      }
    </style>
  </defs>
  <path class="cls-1" d="M59.88,119.94C26.59,119.69-.04,93.09,0,59.88.04,26.59,26.8-.04,60.01,0c33.28.04,59.92,26.8,59.88,60.01-.04,33.29-26.8,59.76-60.01,59.92ZM53.57,59.88c.31-.24.52-.37.69-.54,6-5.99,11.99-11.99,17.98-17.99.37-.37.73-.74,1.06-1.14,1.79-2.18,1.69-5.3-.23-7.34-1.91-2.03-5.05-2.35-7.31-.72-.52.37-.98.82-1.43,1.27-5.35,5.34-10.67,10.7-16.03,16.03-2.15,2.14-4.26,4.33-6.51,6.38-2.47,2.25-2.28,6.34.3,8.49.43.36.84.74,1.24,1.13,7.04,7.04,14.08,14.08,21.13,21.11.4.39.8.79,1.24,1.13,1.97,1.52,4.68,1.55,6.69.09,2.01-1.47,2.8-4.05,1.96-6.41-.36-1.01-1.03-1.79-1.77-2.53-4.02-4.01-8.03-8.03-12.05-12.04-2.26-2.26-4.52-4.52-6.95-6.94Z"/>
</svg>