<?xml version="1.0" encoding="UTF-8"?>
<svg id="Layer_12_Image" data-name="Layer 12 Image" xmlns="http://www.w3.org/2000/svg" viewBox="0 0 92.64 81.12">
  <defs>
    <style>
      .cls-1 {
        fill: #fbfbfb;
      }

      .cls-1, .cls-2 {
        stroke-width: 0px;
      }

      .cls-2 {
        fill: #010101;
      }
    </style>
  </defs>
  <path class="cls-2" d="M0,81.12V0h92.64v81.12H0ZM3.37,74.98c2.26.31,32.24.17,34.05-.16.19-.29.09-.61.09-.92.01-1.72,0-3.44.01-5.16,0-.48.04-.96.12-1.43.2-1.12.79-1.67,1.93-1.77.44-.04.88-.02,1.32,0,4.23.22,8.46.44,12.7.67,1.19.07,1.59.5,1.62,1.75.04,1.68.05,3.36.07,5.04,0,.67.04,1.34.19,2.03h33.96c.18-.42.1-.82.1-1.21,0-13.64,0-27.28,0-40.91,0-3.24-.68-6.34-2.06-9.27-2.33-4.95-6.08-8.56-10.8-11.19-7.07-3.94-14.75-5.72-22.74-6.44-3.23-.29-6.47-.3-9.71-.26-5.37.06-10.68.67-15.9,1.96-4.86,1.2-9.52,2.92-13.75,5.68-3.43,2.24-6.32,4.99-8.39,8.57-2.2,3.81-2.98,7.96-2.98,12.3,0,13.32,0,26.64,0,39.95,0,.24-.06.48.19.77Z"/>
  <path class="cls-1" d="M3.37,74.98c-.24-.29-.19-.53-.19-.77,0-13.32,0-26.64,0-39.95,0-4.34.79-8.49,2.98-12.3,2.06-3.58,4.96-6.33,8.39-8.57,4.23-2.76,8.89-4.48,13.75-5.68,5.22-1.29,10.53-1.9,15.9-1.96,3.24-.04,6.48-.03,9.71.26,7.98.72,15.67,2.5,22.74,6.44,4.73,2.63,8.47,6.25,10.8,11.19,1.38,2.93,2.06,6.03,2.06,9.27,0,13.64,0,27.28,0,40.91,0,.39.08.79-.1,1.21h-33.96c-.15-.69-.18-1.36-.19-2.03-.02-1.68-.03-3.36-.07-5.04-.03-1.25-.43-1.68-1.62-1.75-4.23-.23-8.46-.45-12.7-.67-.44-.02-.88-.04-1.32,0-1.14.1-1.74.64-1.93,1.77-.08.47-.11.95-.12,1.43-.01,1.72,0,3.44-.01,5.16,0,.31.1.64-.09.92-1.81.33-31.79.47-34.05.16ZM32.36,37.36c-.16.62-.68.71-1.21.75-.52.04-1.04.03-1.56.04-.96.01-1.91.14-2.83.44-.69.23-1.19.6-1.28,1.34.32.53.78.59,1.28.58.96-.01,1.92-.02,2.88-.03.44,0,.89-.06,1.3.13.13.06.23.21.33.3,0,.33-.09.58-.39.84-1.31.19-2.71.19-4.1.22-.52.01-1.04.04-1.52.29-.76.39-.91.85-.57,1.78.54.27,1.14.22,1.74.22.96.01,1.92-.01,2.88.02.5.02.98.14.88.82-.28.54-.79.51-1.26.51-1.2.01-2.4,0-3.6.02-1.46.02-1.8.26-2.26,1.65-.2.6-.38,1.22-.53,1.84-.55,2.28.01,3.74,1.94,5.06,1.77,1.21,3.74,1.95,5.81,2.46,6.58,1.61,13.28,2.39,20.04,2.68.44.02.88.06,1.34-.22.39-.51.36-1.15.36-1.79,0-5.2,0-10.4,0-15.6,0-.36.06-.72-.19-1.1-.53-.51-1.32-.33-1.99-.52-4.28-1.21-8.65-1.9-13.11-1.98-.2,0-.4-.01-.6-.05-.52-.1-.87-.37-.83-.95.27-.33.61-.41.99-.4,1.2.02,2.4,0,3.6.07,3.44.23,6.8.91,10.14,1.74.58.14,1.17.31,1.76.05.86-1.58,1.35-1.9,2.75-1.72-.6.79-.67,1.7-.67,2.63,0,4.72,0,9.44,0,14.16,0,2.04.09,4.08.08,6.12,0,2.11-.79,3.8-2.71,4.86-.14.08-.4.13-.29.45,2.03.01,4.05-.23,6.01-.79,2.54-.72,3.55-2.27,3.35-4.9-.14-1.8.07-3.51,1.22-5,.35-.45.58-.96.37-1.52-.36-.6-1.08-.74-1.43-1.28-.11-.43-.08-.81.21-1.17.69-.04,1.37.53,2.1.11.36-.5.5-1.05.28-1.64-.66-.9-1.92-.85-2.56-1.68-.1-.4-.13-.74.13-1.11,1.07-.29,1.88.81,2.97.61.5-.31.8-.74.65-1.44-1.01-1.13-2.73-1.21-3.77-2.27-.14-.49-.04-.84.34-1.11,1.49-.08,2.61,1.44,4.15,1.03.26-.34.39-.67.41-1.14-.69-.97-1.8-1.43-2.88-1.92-.61-.28-1.28-.45-1.81-.89-.09-.07-.15-.18-.21-.26-.07-.38-.11-.73.16-1.02.6-.1,1.11.15,1.63.36.89.36,1.76.74,2.64,1.13.42.19.82.32,1.25.1.52-.91.49-1.27-.23-1.84-.28-.22-.6-.4-.91-.57-1.4-.78-2.87-1.39-4.37-1.92-.48-.17-1.03-.28-1.15-.92.04-.39.28-.65.6-.89,1.12-.18,2.07.33,3,.89.89.53,1.78,1.08,2.78,1.38.53.16,1.07.37,1.6.04.42-.85.38-1.25-.24-1.79-.58-.5-1.23-.89-1.9-1.24-1.1-.57-2.24-1.03-3.4-1.48-.47-.18-1.01-.3-1.18-.89.56-.8.78-.9,1.78-.57,1.51.5,2.98,1.14,4.38,1.89.38.21.74.48,1.18.51.53-.11.67-.5.79-.95.51-1.92.04-3.64-1.08-5.21-1.16-1.63-2.76-2.76-4.48-3.73-3.18-1.78-6.63-2.91-10.08-4.05-.47-.16-.95-.2-1.42-.11-2.37.48-4.23,1.61-5.12,4-.16.44-.28.93-.84,1.21-.51.08-1.02-.05-1.45-.47-.02-2.25,1.46-3.69,2.9-5.28-1.07,0-1.95-.1-2.82.11-2.39.58-3.98,2.09-4.93,4.32-.23.54-.29,1.17-.8,1.52-.64.19-1.03-.1-1.38-.56.17-2.34,1.89-3.73,3.44-5.39-1.64.04-2.95.41-4.04,1.41-1.19,1.1-2.17,2.35-2.7,3.9-.13.38-.21.78-.7.94-.33-.06-.66-.17-.84-.52-.29-.84.47-1.48.48-2.31-1.99,1.48-2.95,3.15-2.7,4.68.54.2,1.09.06,1.62-.06.87-.19,1.75-.17,2.63-.13.52.02.96.15.94.83-.39.6-1.04.54-1.61.58-1.16.09-2.3.29-3.42.57-.72.18-1.34.53-1.46,1.36.28.57.77.55,1.25.53,1-.03,2-.09,3-.11.55-.01,1.13-.02,1.28.68-.25.53-.67.59-1.12.64-1.23.14-2.46.28-3.68.47-.95.15-1.76.5-1.95,1.58.37.52.85.45,1.33.43,1.08-.05,2.16-.08,3.24-.12.58-.02,1.01.19,1.15.81-.41.63-1.03.83-1.74.91-1.19.12-2.39.26-3.57.46-.88.15-1.52.63-1.64,1.55.37.5.84.38,1.27.38,1.12,0,2.24-.03,3.36-.03.49,0,.98.03,1.12.67ZM50.71,62.89c-.6-.34-1.19-.4-1.78-.45-2.07-.18-4.14-.33-6.21-.52-1.58-.15-2.95-.67-3.71-2.23-.32-.65-.88-1.01-1.59-1.14-1.22-.22-2.43-.46-3.65-.68-.24-.04-.48-.04-.79.16-.61.82-.41,1.72.1,2.59.76,1.28,1.93,2.04,3.37,2.25,3.72.55,7.46.85,11.21,1.08,1.06.06,2.13-.17,3.04-1.06Z"/>
  <path class="cls-2" d="M32.36,37.36c-.14-.64-.63-.67-1.12-.67-1.12,0-2.24.04-3.36.03-.42,0-.9.12-1.27-.38.13-.93.77-1.4,1.64-1.55,1.18-.2,2.37-.34,3.57-.46.71-.07,1.32-.28,1.74-.91-.15-.62-.57-.83-1.15-.81-1.08.04-2.16.07-3.24.12-.48.02-.96.09-1.33-.43.19-1.08,1-1.43,1.95-1.58,1.22-.19,2.45-.33,3.68-.47.45-.05.88-.11,1.12-.64-.14-.7-.72-.7-1.28-.68-1,.02-2,.08-3,.11-.48.02-.98.04-1.25-.53.12-.83.74-1.18,1.46-1.36,1.12-.28,2.26-.48,3.42-.57.57-.04,1.22.02,1.61-.58.02-.67-.42-.81-.94-.83-.88-.03-1.76-.05-2.63.13-.54.11-1.09.26-1.62.06-.25-1.53.71-3.2,2.7-4.68,0,.83-.77,1.47-.48,2.31.18.35.5.46.84.52.48-.16.57-.56.7-.94.53-1.55,1.51-2.8,2.7-3.9,1.08-1,2.4-1.37,4.04-1.41-1.55,1.66-3.27,3.05-3.44,5.39.35.47.74.75,1.38.56.52-.35.57-.99.8-1.52.95-2.23,2.54-3.74,4.93-4.32.86-.21,1.75-.11,2.82-.11-1.44,1.58-2.92,3.02-2.9,5.28.43.43.94.55,1.45.47.56-.28.68-.77.84-1.21.88-2.4,2.75-3.53,5.12-4,.47-.1.95-.05,1.42.11,3.44,1.14,6.89,2.26,10.08,4.05,1.72.96,3.31,2.1,4.48,3.73,1.12,1.57,1.59,3.29,1.08,5.21-.12.45-.26.84-.79.95-.44-.04-.8-.31-1.18-.51-1.41-.76-2.87-1.39-4.38-1.89-1.01-.33-1.23-.23-1.78.57.17.59.71.71,1.18.89,1.15.45,2.3.91,3.4,1.48.67.35,1.33.75,1.9,1.24.62.54.66.93.24,1.79-.53.33-1.07.12-1.6-.04-1-.3-1.89-.85-2.78-1.38-.93-.55-1.88-1.06-3-.89-.33.24-.56.5-.6.89.12.63.67.75,1.15.92,1.51.53,2.98,1.14,4.37,1.92.31.17.63.35.91.57.72.57.75.93.23,1.84-.43.22-.83.09-1.25-.1-.87-.39-1.75-.77-2.64-1.13-.51-.21-1.03-.45-1.63-.36-.27.3-.23.65-.16,1.02.06.08.12.19.21.26.53.45,1.2.61,1.81.89,1.08.5,2.19.95,2.88,1.92-.02.47-.15.8-.41,1.14-1.54.41-2.66-1.11-4.15-1.03-.38.27-.49.62-.34,1.11,1.05,1.06,2.76,1.14,3.77,2.27.15.7-.15,1.13-.65,1.44-1.09.2-1.9-.91-2.97-.61-.26.36-.23.71-.13,1.11.64.84,1.9.78,2.56,1.68.22.6.08,1.15-.28,1.64-.74.42-1.41-.14-2.1-.11-.29.36-.32.74-.21,1.17.35.54,1.07.68,1.43,1.28.21.56-.03,1.07-.37,1.52-1.15,1.49-1.36,3.2-1.22,5,.2,2.63-.82,4.18-3.35,4.9-1.96.56-3.98.8-6.01.79-.11-.32.15-.37.29-.45,1.92-1.06,2.71-2.75,2.71-4.86,0-2.04-.08-4.08-.08-6.12-.01-4.72,0-9.44,0-14.16,0-.93.07-1.84.67-2.63-1.4-.17-1.89.14-2.75,1.72-.59.26-1.18.09-1.76-.05-3.34-.83-6.7-1.51-10.14-1.74-1.2-.08-2.4-.05-3.6-.07-.37,0-.71.07-.99.4-.04.58.3.84.83.95.19.04.4.05.6.05,4.46.07,8.83.76,13.11,1.98.68.19,1.46.01,1.99.52.25.38.19.75.19,1.1,0,5.2,0,10.4,0,15.6,0,.64.04,1.28-.36,1.79-.45.28-.9.23-1.34.22-6.76-.29-13.45-1.07-20.04-2.68-2.07-.51-4.04-1.25-5.81-2.46-1.93-1.32-2.49-2.78-1.94-5.06.15-.62.33-1.23.53-1.84.46-1.38.8-1.63,2.26-1.65,1.2-.02,2.4,0,3.6-.02.48,0,.98.03,1.26-.51.1-.69-.38-.81-.88-.82-.96-.03-1.92-.01-2.88-.02-.59,0-1.2.05-1.74-.22-.34-.93-.19-1.39.57-1.78.48-.24.99-.28,1.52-.29,1.4-.03,2.79-.03,4.1-.22.3-.26.39-.51.39-.84-.1-.1-.2-.24-.33-.3-.41-.18-.86-.13-1.3-.13-.96,0-1.92.01-2.88.03-.5,0-.96-.06-1.28-.58.09-.74.6-1.12,1.28-1.34.92-.3,1.86-.43,2.83-.44.52,0,1.04,0,1.56-.04.52-.04,1.05-.13,1.21-.75ZM53.1,35.68c-.47-.59-.48-.56-1.31-.9-4.28-1.73-8.81-2.06-13.34-2.35-.44-.03-.87,0-1.3.12-.32.1-.61.23-.67.59-.08.42.17.69.48.89.38.24.82.27,1.27.28,4,.04,7.93.59,11.8,1.63.73.19,1.47.39,2.23.36.43-.01.81-.09.85-.62ZM38.45,25.63c.11.42.41.56.8.58.68.05,1.35.13,2.03.14,4.08.05,8.1.53,12.02,1.74.42.13.84.27,1.29.2.49-.08.94-.23.92-.87-.08-.1-.13-.22-.22-.28-.17-.1-.35-.19-.54-.25-4.98-1.66-10.11-2.13-15.32-1.94-.49.02-.85.17-.97.69ZM54.23,31.27c-.45-.52-1.07-.6-1.63-.76-2.91-.86-5.89-1.39-8.91-1.64-1.67-.14-3.35-.11-5.02-.13-.56,0-1.13.03-1.35.74.41.86,1.22.78,1.96.77,4.46-.1,8.81.52,13.07,1.83.53.16,1.08.29,1.62.04.24-.21.31-.47.26-.85ZM50.89,43.31c-.34-.52-.84-.56-1.29-.68-3.6-.94-7.23-1.66-10.94-1.99-1.19-.11-2.4-.06-3.59-.08-.52,0-.85.2-.77.81.39.59,1.03.54,1.61.57,4.16.23,8.24.93,12.28,1.92.68.17,1.38.46,2.11.25.3-.18.46-.45.59-.8ZM49.63,47.17c-.31-.44-.69-.54-1.08-.64-4.45-1.15-8.95-1.94-13.55-2.19-.44-.02-.88-.01-1.31.05-.48.07-.67.38-.53.9.48.5,1.17.42,1.77.47,4.09.39,8.14,1.04,12.15,1.95.65.15,1.3.42,1.97.24.34-.16.47-.45.58-.78ZM44.1,56.82c-.27-.49-.78-.52-1.22-.63-.74-.18-1.45-.41-2.15-.71-2.57-1.1-3.23-2.31-2.71-5.07.12-.63.23-1.25.06-1.93-.5-.3-1-.43-1.54-.15-.31.36-.45.77-.56,1.2-.27,1.06-.21,2.14-.2,3.21,0,1.03.44,1.86,1.26,2.45,1.79,1.29,3.82,1.92,5.99,2.16.45.05.89.01,1.06-.53ZM30.03,47.83c-.47.54-.47,1.24-.61,1.9-.52,2.61.29,4.28,2.64,5.52,1.04.55,2.16.78,3.3.98.23.04.47.17.59-.17-.18-.23-.45-.29-.71-.4-.85-.34-1.69-.7-2.46-1.21-1.2-.8-1.77-1.91-1.59-3.37.05-.35.17-.7.19-1.06.04-.73.39-1.48-.05-2.18-.46-.17-.88-.28-1.31-.02ZM27.33,54.14c.11-.12,0-.21-.06-.29-.75-1.11-.98-2.32-.71-3.64.15-.7.24-1.41.35-2.12.02-.11-.02-.23-.03-.3-.17-.26-.42-.31-.63-.4-.1-.04-.23-.03-.33-.04-1.97,1.73-1.08,5.93,1.41,6.78Z"/>
  <path class="cls-2" d="M50.71,62.89c-.91.89-1.98,1.12-3.04,1.06-3.75-.23-7.49-.52-11.21-1.08-1.44-.22-2.61-.97-3.37-2.25-.51-.87-.71-1.77-.1-2.59.31-.21.55-.21.79-.16,1.22.22,2.43.46,3.65.68.71.13,1.28.49,1.59,1.14.76,1.56,2.13,2.08,3.71,2.23,2.07.19,4.14.35,6.21.52.59.05,1.17.12,1.78.45Z"/>
  <path class="cls-1" d="M53.1,35.68c-.05.53-.43.61-.85.62-.77.03-1.51-.17-2.23-.36-3.87-1.03-7.8-1.59-11.8-1.63-.44,0-.88-.03-1.27-.28-.31-.2-.56-.47-.48-.89.07-.36.35-.49.67-.59.43-.13.87-.15,1.3-.12,4.53.29,9.06.62,13.34,2.35.83.33.84.3,1.31.9Z"/>
  <path class="cls-1" d="M38.45,25.63c.12-.51.48-.67.97-.69,5.21-.18,10.35.28,15.32,1.94.19.06.37.15.54.25.09.06.15.18.22.28.02.64-.43.79-.92.87-.45.07-.87-.07-1.29-.2-3.92-1.2-7.93-1.69-12.02-1.74-.68,0-1.35-.09-2.03-.14-.39-.03-.7-.16-.8-.58Z"/>
  <path class="cls-1" d="M54.23,31.27c.05.38-.02.63-.26.85-.54.25-1.09.12-1.62-.04-4.26-1.32-8.61-1.94-13.07-1.83-.74.02-1.54.09-1.96-.77.22-.71.79-.75,1.35-.74,1.67.02,3.35,0,5.02.13,3.02.25,6,.78,8.91,1.64.56.17,1.18.24,1.63.76Z"/>
  <path class="cls-1" d="M50.89,43.31c-.13.35-.29.62-.59.8-.73.21-1.43-.08-2.11-.25-4.04-1-8.12-1.7-12.28-1.92-.58-.03-1.22.02-1.61-.57-.09-.61.25-.81.77-.81,1.2.01,2.4-.03,3.59.08,3.7.34,7.34,1.05,10.94,1.99.46.12.96.16,1.29.68Z"/>
  <path class="cls-1" d="M49.63,47.17c-.11.33-.24.62-.58.78-.67.19-1.33-.09-1.97-.24-4.01-.91-8.06-1.56-12.15-1.95-.6-.06-1.29.02-1.77-.47-.14-.52.05-.84.53-.9.43-.06.88-.07,1.31-.05,4.59.25,9.1,1.05,13.55,2.19.39.1.77.2,1.08.64Z"/>
  <path class="cls-1" d="M44.1,56.82c-.17.55-.61.58-1.06.53-2.17-.24-4.2-.87-5.99-2.16-.83-.6-1.26-1.42-1.26-2.45,0-1.07-.06-2.15.2-3.21.11-.43.25-.84.56-1.2.54-.29,1.04-.15,1.54.15.17.68.06,1.3-.06,1.93-.52,2.76.13,3.97,2.71,5.07.7.3,1.41.53,2.15.71.45.11.96.14,1.22.63Z"/>
  <path class="cls-1" d="M30.03,47.83c.43-.26.85-.15,1.31.02.45.7.09,1.45.05,2.18-.02.35-.15.7-.19,1.06-.19,1.46.38,2.56,1.59,3.37.77.51,1.61.87,2.46,1.21.26.1.53.16.71.4-.12.34-.35.21-.59.17-1.14-.2-2.26-.44-3.3-.98-2.35-1.24-3.17-2.91-2.64-5.52.13-.66.14-1.36.61-1.9Z"/>
  <path class="cls-1" d="M27.33,54.14c-2.49-.84-3.38-5.04-1.41-6.78.1,0,.23,0,.33.04.22.09.46.13.63.4,0,.07.05.19.03.3-.11.71-.21,1.42-.35,2.12-.28,1.32-.04,2.52.71,3.64.06.08.17.17.06.29Z"/>
</svg>