<?xml version="1.0" encoding="UTF-8"?>
<svg id="Layer_2_Image" data-name="Layer 2 Image" xmlns="http://www.w3.org/2000/svg" viewBox="0 0 141.39 36.12">
  <defs>
    <style>
      .cls-1 {
        fill: #fff;
        stroke-width: 0px;
      }
    </style>
  </defs>
  <path class="cls-1" d="M5.83,21.41c-.11.14-.15.17-.15.2-.22,1.91-.59,2.25-2.48,2.25-.28,0-.56,0-.84,0-1.93,0-2.35-.41-2.36-2.3,0-2.36,0-4.72,0-7.08,0-.2,0-.4,0-.6.06-1.22.57-1.72,1.79-1.78.08,0,.16,0,.24,0q2.54-.05,4.17,1.92c.76.92,1.54,1.82,2.39,2.82,1-1.17,2.02-2.24,2.89-3.42.75-1.01,1.64-1.47,2.87-1.32.32.04.64,0,.96,0,1.19.07,1.76.61,1.78,1.8.03,1.83,0,3.67,0,5.6.54-.54.84-1.16,1.2-1.72.97-1.51,1.95-3.02,2.87-4.56.46-.77,1.1-1.09,1.96-1.14,3.07-.14,3.14-.11,4.8,2.51.94,1.48,1.88,2.95,2.99,4.69.02-.5.05-.74.05-.98,0-1.4-.01-2.8,0-4.2.02-1.5.52-1.98,2.05-2.01.32,0,.64.03.96,0,.99-.1,1.78.28,2.49.94.97.89,1.97,1.73,3.14,2.76,0-.75-.02-1.32,0-1.88.05-1.23.56-1.75,1.77-1.8.72-.03,1.44-.02,2.16,0,1.28.04,1.81.56,1.83,1.86.03,1.68,0,3.36,0,5.04,0,.14.02.29.05.66,1.03-1.62,1.94-3.06,2.86-4.5.39-.61.82-1.19,1.15-1.83.49-.94,1.26-1.28,2.26-1.24.28,0,.55-.02,1.1-.05-1.42-.43-2.62-.71-3.62-1.59-.38,1.17-1.2,1.43-2.19,1.41-.52,0-1.04-.03-1.56,0-1.08.08-1.86-.33-2.31-1.33-.08-.18-.21-.34-.34-.54h-4.16c-.06.05-.15.09-.17.15-.55,1.41-1.63,1.87-3.06,1.72-.52-.05-1.04.03-1.56-.04-1.38-.18-1.94-1.37-1.19-2.53,1.75-2.72,3.49-5.45,5.19-8.19.4-.65.96-.93,1.66-1,2.96-.31,3.35-.11,4.96,2.42.84,1.31,1.68,2.62,2.52,3.93.12.19.26.37.53.74,0-1.82,0-3.4,0-4.97,0-1.63.51-2.12,2.18-2.13.64,0,1.28-.03,1.92,0,1.14.06,1.67.58,1.7,1.74.04,1.36,0,2.72.01,4.08,0,.39-.08.8.14,1.26.72.47,1.51.43,2.28.07.31-.39.21-.81.21-1.2.01-1.28,0-2.56,0-3.84.01-1.61.49-2.09,2.06-2.12.48,0,.96.02,1.44,0,.93-.05,1.76.09,2.26,1.19.5-1.05,1.27-1.21,2.17-1.19,1.68.03,3.36.01,5.04,0,1.13,0,2.22.22,3.3.53.97.28,1.79.85,2.63,1.68,0-.77.04-1.38.59-1.81.52-.41,1.1-.41,1.71-.4.6,0,1.2-.02,1.8,0,1.15.06,1.69.57,1.72,1.72.04,1.44,0,2.88.01,4.32,0,.32-.05.64.14,1.02.71.54,1.5.35,2.21.15.36-.4.28-.77.28-1.12,0-1.4-.02-2.8,0-4.2.02-1.36.55-1.86,1.92-1.89.52-.01,1.04,0,1.56,0,1.34,0,1.41.04,2.35,1.04.45-.97,1.28-1.11,2.2-1.05.32.02.64.02.96,0,.86-.05,1.53.25,2.09.93,1.04,1.26,2.13,2.48,3.28,3.8,1.01-1.19,2.04-2.3,2.95-3.5.7-.92,1.53-1.35,2.67-1.23.32.03.64,0,.96,0,1.34.05,1.89.59,1.9,1.92.02,2.04,0,4.08,0,6.12,0,.64.02,1.28,0,1.92-.04,1.19-.59,1.74-1.78,1.8-.6.03-1.2.01-1.8,0-1.45-.03-1.92-.5-1.98-1.96,0-.2,0-.4,0-.69-.75.36-.94,1.24-1.69,1.49-.74.25-1.48.26-2.24.11-.81-.16-1.13-.96-1.71-1.39-.38.27-.19.63-.25.92-.2.91-.67,1.43-1.6,1.5-.84.06-1.68.06-2.52,0-.93-.07-1.43-.61-1.49-1.57-.05-.72,0-1.44-.1-2.21-.44,1.01-.98,1.93-1.87,2.61-.92.69-1.98,1.01-3.13,1.27.34.51,1.08.41,1.28,1.14.62-.91,1.39-1.03,2.22-.99.36.02.72.02,1.08,0,.82-.03,1.45.28,1.98.92,1.05,1.26,2.14,2.48,3.25,3.77,1.07-1,1.93-2.15,2.83-3.25.72-.89,1.44-1.56,2.69-1.45,1.06.09,2.2-.22,2.97,1.05.62-1.01,1.47-1.06,2.38-1.05,2.6.02,5.2.02,7.8,0,.79,0,1.5.17,2.12.85.91-1.21,2.21-.78,3.41-.84.93-.05,1.55.54,2.18,1.1.92.82,1.86,1.62,2.97,2.59,0-.71-.01-1.23,0-1.76.03-1.38.53-1.92,1.88-1.92,1.03,0,2.07-.16,3.09.18.47.16.91-.21,1.4-.21,3.36.02,6.72,0,10.08.02,1.22,0,1.72.56,1.79,1.78.12,2.29-.34,2.77-2.6,2.77-.43,0-.87,0-1.43,0,0,1.13,0,2.2,0,3.27,0,.72.02,1.44,0,2.16-.04,1.12-.59,1.7-1.69,1.76-.8.04-1.6.04-2.4,0-1.14-.05-1.67-.58-1.7-1.74-.04-1.4,0-2.8,0-4.2,0-.39,0-.78,0-1.21h-2.52c-.23.2-.11.54-.11.85-.01,1.48.01,2.96-.01,4.44-.02,1.3-.54,1.82-1.82,1.87-.32.01-.64-.03-.96,0-1.12.14-2.01-.29-2.81-1.04-.93-.87-1.92-1.67-3.04-2.65,0,.76.02,1.33,0,1.9-.05,1.22-.57,1.73-1.79,1.78-.68.03-1.36-.01-2.04,0-.63.02-1.18-.16-1.7-.66-.75.61-1.64.67-2.57.67-2.56-.02-5.12-.02-7.68,0-.84,0-1.6-.1-2.16-.93-1.22,1.4-2.8.9-4.27.86-.74-.02-1.19-.59-1.29-1.36-.05-.38,0-.78,0-1.37-.89.93-1.52,1.84-2.82,1.87-1.29.03-2.08-.61-2.83-1.57-.38.37-.22.81-.3,1.16-.14.62-.48,1.06-1.05,1.18-1.22.27-2.45.29-3.67-.04-.22-.06-.4-.25-.67-.43-.69.56-1.53.65-2.43.64-2.56-.02-5.12-.03-7.68,0-1.02.01-1.93-.1-2.33-1.23-.94.54-1.88.84-3,1.11,3.4.48,4.66.52,7.51,3.18,0-.44-.02-.82,0-1.2.06-.93.57-1.53,1.47-1.6.95-.07,1.92-.07,2.88,0,.95.07,1.42.66,1.45,1.73.03,1.36,0,2.72.01,4.08,0,.39-.08.8.15,1.25.73.5,1.52.34,2.23.11.33-.42.25-.8.25-1.15,0-1.4-.02-2.8,0-4.2.02-1.3.55-1.81,1.83-1.85.64-.02,1.28.02,1.92,0,.83-.03,1.5.21,1.95,1.05.4-.33.63-.83,1.17-.96.48-.11.95-.08,1.43-.08,1.56,0,3.12-.02,4.68,0,1.45.02,2.86.27,4.18.91,1.05.51,1.83,1.28,2.24,2.38.77,2.09-.32,4.07-1.85,4.95-1.36.78-2.84,1.02-4.37,1.12-.48.03-.96,0-1.39,0-.36.23-.2.54-.23.8-.12.98-.64,1.53-1.63,1.59-.84.05-1.68.05-2.52,0-1.07-.05-1.6-.59-1.66-1.67-.04-.7,0-1.41,0-2.14-.11.05-.17.05-.18.08-1,2.84-3.32,3.67-6.01,3.94-1.41.14-2.79-.04-4.14-.45-1.62-.49-2.42-1.17-3.67-3.14-1.63,2.53-4.13,3.4-6.92,3.58-2.79.18-5.4-.41-7.57-2.41-.01,1.68-.52,2.21-2.16,2.19-3.02-.03-2.35.41-4.72-1.88-.34-.33-.63-.75-1.2-.47-.02.04-.06.07-.06.11-.19,1.92-.53,2.24-2.46,2.24-.44,0-.88,0-1.32,0-1.29-.02-1.52-.17-2.1-1.32-2.89,1.53-5.92,1.95-9.1,1.22-.7-.16-1.39-.37-2.03-.7-2.12-1.09-3.49-2.75-3.44-5.19.05-2.44,1.5-4.05,3.64-5.06.83-.39,1.73-.58,2.84-.83-1.41-1.35-2.84-2.45-4.35-3.81,0,.76.02,1.33,0,1.89-.05,1.22-.56,1.78-1.77,1.79-1.03,0-2.06.06-3.1-.11-.68-.11-1.41.19-2.13.13-.36-.03-.72-.02-1.08,0-.88.03-1.55-.29-1.97-1.09-.15-.28-.34-.54-.52-.83h-4.03c-.12.09-.21.12-.24.18-.55,1.4-1.6,1.89-3.05,1.75-.71-.07-1.44.11-2.13-.19-.2-.09-.38-.05-.58.02-.94.33-1.91.16-2.86.15-1.16,0-1.66-.54-1.75-1.69-.02-.28,0-.56,0-.94-.75.35-.94,1.23-1.68,1.48-.74.25-1.48.26-2.24.12-.82-.15-1.11-.98-1.77-1.4ZM98.33,9.44c1.19-1.39,2.35-2.74,3.51-4.09.07.03.13.05.2.08v4.99c.55,0,.98.02,1.42,0,.42-.03.87.14,1.22-.12V1.59h-2.41c-1.53,1.8-3.05,3.58-4.62,5.41-1.63-1.88-3.16-3.67-4.66-5.4h-2.44v8.76h2.7c.14-1.6-.07-3.17.15-4.93,1.25,1.43,2.38,2.72,3.49,4h1.44ZM4.31,22.38v-4.99c1.29,1.47,2.41,2.76,3.52,4.02.51.07.99.08,1.5-.01,1.15-1.34,2.31-2.69,3.66-4.28v5.31c.97-.08,1.83.11,2.66-.12v-8.72h-2.42c-1.52,1.78-3.04,3.57-4.61,5.41-1.62-1.88-3.15-3.66-4.67-5.41H1.5v8.78h2.8ZM89.16,13.61c-.78-.14-1.6-.04-2.46-.07v8.89c.94-.05,1.83.09,2.8-.13v-4.91c1.29,1.48,2.41,2.76,3.52,4.02.51.08.98.08,1.5,0,1.15-1.34,2.3-2.69,3.66-4.27v5.3c.97-.07,1.83.1,2.67-.11v-8.72h-2.43c-1.51,1.77-3.03,3.56-4.61,5.41-1.59-1.85-3.1-3.6-4.65-5.4ZM41.05,18.9c-2.19-1.89-4.21-3.63-6.13-5.28h-2.45v8.73h2.85v-5.24c2.15,1.85,4.17,3.58,6.1,5.24h2.43v-8.73h-2.8v5.28ZM116,13.58v8.78h2.85v-5.25c2.15,1.85,4.17,3.58,6.1,5.24h2.43v-8.74h-2.85v5.25c-2.14-1.85-4.16-3.59-6.14-5.29h-2.39ZM70.25,25.3c-2.26-.01-4.15.38-5.72,1.72-1.88,1.61-1.89,4.22-.06,5.88.48.43,1.01.78,1.61,1.02,2.43,1,4.9,1,7.37.19.88-.29,1.65-.78,2.31-1.46.86-.89,1.21-1.93,1.05-3.17-.22-1.76-1.4-2.73-2.85-3.42-1.24-.59-2.58-.82-3.71-.76ZM71.54,7.72c.59-.31.95-.47,1.29-.68,1.68-1.03,1.84-3.08.33-4.32-1.03-.84-2.28-1.12-3.57-1.15-1.83-.05-3.67-.03-5.51-.02-.3,0-.64-.13-.88.11v8.77c1-.05,1.94.1,2.85-.11.12-.8-.1-1.56.16-2.3h2.76c.65.77,1.4,1.66,1.99,2.35h3.51c-1.03-.94-1.91-1.74-2.92-2.65ZM50.73,25.53v8.84h2.89v-2.32h3c.6.73,1.34,1.62,1.9,2.31h3.32c-.92-.96-1.75-1.83-2.61-2.72.45-.24.82-.4,1.15-.61,1.65-1.03,1.77-3.1.26-4.33-.6-.49-1.3-.76-2.05-.91-2.61-.5-5.23-.11-7.86-.26ZM77.37,20.78c0-.75-.07-1.34.09-2.06h5.79c-.13-.6.1-1.07-.21-1.6h-5.64c-.07-.66-.07-1.24,0-1.93h6.52c.04-.61.1-1.1-.03-1.57h-9.42v8.74h9.72c-.02-.55.08-1.04-.1-1.59h-6.74ZM113.48,20.75h-6.82c0-.73-.12-1.34.14-2.05h5.68c-.04-.56.13-1.03-.15-1.61h-5.7c.06-.7-.11-1.29.17-1.97h6.39v-1.52h-9.45v8.73h9.72v-1.59ZM48.24,26.98c-.32-.26-.5-.42-.7-.55-2.01-1.29-4.24-1.28-6.48-.99-1.15.15-2.25.52-3.21,1.22-1.16.85-1.88,1.94-1.83,3.44.06,1.7,1.01,2.82,2.43,3.58,2.02,1.09,4.21,1.16,6.42.86,1.09-.15,2.19-.38,3.08-.97v-3.63h-2.58v2.58c-1.8.57-3.52.63-5.13-.36-1.53-.94-1.71-2.94-.39-4.08.55-.48,1.22-.74,1.94-.89,1.68-.33,3.24-.05,4.66.88.6-.36,1.14-.69,1.81-1.09ZM72.19,15.01c-.55-.63-1.19-.95-1.86-1.19-1.78-.63-3.6-.65-5.43-.35-1.11.19-2.17.54-3.09,1.21-1.16.85-1.87,1.96-1.8,3.45.08,1.75,1.07,2.9,2.57,3.6,3.13,1.47,6.25,1.14,9.41-.12,0-.67.01-1.27,0-1.86-.02-.62.08-1.25-.08-1.89-.89.04-1.71-.09-2.59.1v2.51c-1.92.78-3.99.39-5.04-.26-1.53-.95-1.78-2.9-.5-4.08.54-.5,1.2-.78,1.92-.92,1.68-.34,3.26-.12,4.72.88.59-.36,1.15-.7,1.78-1.08ZM47.77,10.4c-1.93-3.04-3.79-5.95-5.6-8.81h-2.98c-1.85,2.93-3.68,5.82-5.59,8.83,1.11-.03,2.1.07,3.06-.06.39-.64.75-1.25,1.09-1.82h5.82c.38.64.75,1.25,1.11,1.85h3.1ZM96.1,32c1.29,0,2.45.03,3.61,0,1.09-.04,2.13-.29,3.07-.88,1.86-1.17,1.89-3.41.05-4.62-.54-.36-1.13-.58-1.77-.7-2.61-.5-5.24-.11-7.89-.25v8.9c.99-.05,1.93.07,2.92-.1v-2.33ZM28.09,22.38h3.1c-1.9-2.99-3.76-5.91-5.59-8.8h-2.98c-1.84,2.91-3.68,5.82-5.56,8.8h3.02c.38-.64.75-1.25,1.09-1.82h5.85c.38.65.72,1.23,1.07,1.82ZM45.38,22.38c1.09.04,2.08.09,3.04-.02.39-.65.75-1.26,1.09-1.82h5.82c.39.64.75,1.25,1.09,1.82h3.09c-1.89-2.98-3.73-5.87-5.58-8.78-1.01-.05-2-.08-2.99.02-1.85,2.92-3.68,5.81-5.56,8.78ZM60.22,1.6h-2.85c0,1.54,0,3.05,0,4.55,0,1.96-.82,2.76-2.77,2.75-.28,0-.55-.04-.83-.09-1.21-.21-1.83-.87-1.92-2.07-.03-.36,0-.72,0-1.08,0-1.35,0-2.69,0-4.13-1.04.05-1.98-.07-2.95.1,0,1.72-.03,3.39,0,5.06.03,1.59.8,2.77,2.27,3.35,2.28.91,4.6.91,6.87-.02,1.22-.5,2.08-1.45,2.15-2.79.1-1.86.03-3.73.03-5.64ZM76.25,1.59c0,1.71,0,3.31,0,4.91,0,1.63.69,2.89,2.21,3.52,2.31.96,4.67.94,6.98,0,1.18-.48,2.02-1.41,2.1-2.69.12-1.89.03-3.8.03-5.71h-2.84c0,1.53-.03,3,0,4.46.06,2.23-1.08,2.89-3.05,2.83-.28,0-.55-.07-.83-.13-.76-.17-1.25-.63-1.51-1.38-.15-.43-.14-.86-.14-1.3,0-1.5,0-3,0-4.51h-2.95ZM78.89,25.59c0,1.75-.03,3.43,0,5.1.03,1.59.8,2.77,2.26,3.36,2.27.91,4.6.92,6.87-.02,1.26-.52,2.11-1.5,2.17-2.9.08-1.82.02-3.65.02-5.58-.99.04-1.92-.1-2.86.1,0,1.62.02,3.18,0,4.73-.02,1.61-.69,2.32-2.28,2.5-.44.05-.87.02-1.31-.07-1.25-.24-1.86-.91-1.93-2.19-.02-.36,0-.72,0-1.08,0-1.31,0-2.61,0-3.96h-2.95ZM132.93,22.4c1.01.03,1.98.07,3.04-.06v-7.16h3.89v-1.56h-10.95c.04.58-.11,1.09.15,1.63h3.87v7.15ZM54.59,22.01h-4.32c-.18.3-.34.53-.46.79-.32.7-.92,1.03-1.62,1.04-1.07.02-2.15.2-3.2-.17-.2-.07-.38-.05-.67.22,1.77.35,3.45.74,4.79,1.95.47-1.46.8-1.72,2.16-1.73,1.76-.01,3.51,0,5.27,0,1.13,0,2.21.25,3.29.57,1.23.36,2.12,1.19,2.91,2.19,1.18-1.42,2.65-2.23,4.61-2.7-2.45-.13-4.54-.52-6.45-1.75-.28,1.16-1.09,1.45-2.09,1.45-.24,0-.48-.02-.72,0-1.6.17-2.97-.1-3.5-1.86ZM58.52,18.1c.38-3.86,2.96-5.37,6.41-6.1-.6-.21-1.03-.11-1.45-.13-1.22-.07-1.74-.57-1.79-1.78-.03-.73,0-1.47,0-2.44-1.18,3.23-3.05,4.24-7.18,4.51,1.52,1.74,2.53,3.92,4.01,5.94ZM75.67,9.5c-.01,1.84-.52,2.38-2.13,2.36-2.98-.03-2.39.41-4.73-1.86-.14-.14-.27-.29-.43-.42-.24-.2-.51-.19-.79-.09q-.23,1.5-1.01,2.34c2.27.02,4.42.41,6.33,1.8.31-1.25,1.1-1.57,2.19-1.55,1.59.04,3.17,0,4.76,0-1.54-.52-3.02-1.05-4.19-2.61ZM68.59,16.68c-1.34-.33-2.43-.34-3.46.23-1.03.57-1.04,1.54-.03,2.13.86.5,1.79.55,2.77.38.14-.93-.18-1.91.72-2.74ZM44.55,28.71c-1.26-.4-2.38-.37-3.44.21-1.02.57-1.01,1.55.02,2.13.86.49,1.79.56,2.75.34.12-.93-.16-1.9.67-2.69ZM113.74,16.56c.19.93.17,1.89-.05,2.87.28.12.5.21.76.32v-3.76c-.3.12-.5.3-.71.57ZM84.44,16.62c.27.89.13,1.86-.02,2.81.27.13.48.22.72.34v-3.77c-.31.14-.52.3-.71.62ZM74.05,7.99c.46.45.74.95,1.4,1.31-.25-.81-.44-1.45-.65-2.13-.27.3-.48.53-.74.83ZM62.03,32.32q.02-.38-.33-.46c-.09.3.09.4.33.46ZM62.37,32.67c-.03-.06-.06-.11-.09-.16-.03.03-.08.06-.07.08.01.06.05.11.07.16.03-.02.05-.05.09-.08Z"/>
  <path class="cls-1" d="M69.95,32.91c-.92-.04-1.82-.2-2.61-.72-1.66-1.1-1.67-3.28-.02-4.39,1.45-.98,3.88-.99,5.34-.02,1.67,1.12,1.68,3.26.02,4.39-.83.56-1.76.71-2.73.74ZM70.07,31.5c.65.03,1.34-.12,1.93-.59.68-.55.68-1.26.03-1.83-.94-.82-3.09-.83-4.03-.03-.69.6-.68,1.35.06,1.91.56.42,1.23.55,2.01.54Z"/>
  <path class="cls-1" d="M66.13,6.34v-3.07c1.22-.03,2.4-.17,3.58.1.27.06.54.12.79.27.93.56.96,1.64.06,2.24-.48.32-1.05.41-1.6.45-.91.05-1.83.01-2.83.01ZM67.59,4.81c.51.04.99.18,1.69-.07-.72-.1-1.22-.12-1.69.07Z"/>
  <path class="cls-1" d="M53.65,30.3v-3.05c1.33,0,2.67-.2,3.98.21.71.22,1.08.69,1.09,1.27.01.63-.4,1.15-1.14,1.37-1.28.38-2.59.24-3.94.19ZM56.51,28.86c-.4-.24-.9-.24-1.4,0h1.4Z"/>
  <path class="cls-1" d="M42.57,6.83h-3.8c.64-1.1,1.22-2.08,1.88-3.21.65,1.09,1.24,2.07,1.92,3.21Z"/>
  <path class="cls-1" d="M96.14,30.32v-3.06c1.1,0,2.16-.02,3.21.01.31,0,.62.12.92.24.56.22.92.63.93,1.25.01.64-.36,1.04-.91,1.26-.37.14-.76.26-1.15.28-.98.04-1.97.01-3,.01ZM99.49,28.78c-.65-.11-1.3-.19-2.12.01.83.17,1.48.12,2.12-.01Z"/>
  <path class="cls-1" d="M22.28,18.84c.51-1.15,1.19-2.12,1.83-3.22.65,1.1,1.25,2.11,1.9,3.22h-3.72Z"/>
  <path class="cls-1" d="M54.32,18.84h-3.72c.51-1.15,1.19-2.11,1.82-3.22.65,1.1,1.25,2.11,1.9,3.22Z"/>
</svg>