<?xml version="1.0" encoding="UTF-8"?>
<svg id="Layer_12_Image" data-name="Layer 12 Image" xmlns="http://www.w3.org/2000/svg" viewBox="0 0 86.36 69.42">
  <defs>
    <style>
      .cls-1 {
        fill: #fbfbfb;
        stroke-width: 0px;
      }
    </style>
  </defs>
  <path class="cls-1" d="M.19,69.25c-.24-.29-.19-.53-.19-.77,0-13.32,0-26.64,0-39.95,0-4.34.79-8.49,2.98-12.3,2.06-3.58,4.96-6.33,8.39-8.57,4.23-2.76,8.89-4.48,13.75-5.68C30.35.69,35.66.08,41.03.02c3.24-.04,6.48-.03,9.71.26,7.98.72,15.67,2.5,22.74,6.44,4.73,2.63,8.47,6.25,10.8,11.19,1.38,2.93,2.06,6.03,2.06,9.27,0,13.64,0,27.28,0,40.91,0,.39.08.79-.1,1.21h-33.96c-.15-.69-.18-1.36-.19-2.03-.02-1.68-.03-3.36-.07-5.04-.03-1.25-.43-1.68-1.62-1.75-4.23-.23-8.46-.45-12.7-.67-.44-.02-.88-.04-1.32,0-1.14.1-1.74.64-1.93,1.77-.08.47-.11.95-.12,1.43-.01,1.72,0,3.44-.01,5.16,0,.31.1.64-.09.92-1.81.33-31.79.47-34.05.16ZM29.19,31.63c-.16.62-.68.71-1.21.75-.52.04-1.04.03-1.56.04-.96.01-1.91.14-2.83.44-.69.23-1.19.6-1.28,1.34.32.53.78.59,1.28.58.96-.01,1.92-.02,2.88-.03.44,0,.89-.06,1.3.13.13.06.23.21.33.3,0,.33-.09.58-.32.78-.37.17-.77.15-1.17.16-1.08.04-2.16.09-3.24.12-.57.02-1.11.12-1.58.48-.41.32-.64.73-.47,1.26.15.47.58.51.99.51,1.08.02,2.16.02,3.24.04.36,0,.72.04,1.07.1.25.05.4.24.43.51.03.28-.14.44-.35.58-.29.19-.62.15-.93.15-1.2.01-2.4,0-3.6.02-1.46.02-1.8.26-2.26,1.65-.2.6-.38,1.22-.53,1.84-.55,2.28.01,3.74,1.94,5.06,1.77,1.21,3.74,1.95,5.81,2.46,6.58,1.61,13.28,2.39,20.04,2.68.44.02.88.06,1.34-.22.39-.51.36-1.15.36-1.79,0-5.2,0-10.4,0-15.6,0-.12.01-.24,0-.36-.04-.72-.2-.91-.89-1.05-.43-.09-.87-.12-1.29-.24-4.29-1.18-8.66-1.88-13.11-1.96-.2,0-.4-.01-.6-.05-.52-.1-.87-.37-.83-.95.27-.33.61-.41.99-.4,1.2.02,2.4,0,3.6.07,3.44.23,6.8.91,10.14,1.74.58.14,1.17.31,1.76.05.86-1.58,1.35-1.9,2.75-1.72-.6.79-.67,1.7-.67,2.63,0,4.72,0,9.44,0,14.16,0,2.04.09,4.08.08,6.12,0,2.11-.79,3.8-2.71,4.86-.14.08-.4.13-.29.45,2.07.01,4.12-.28,6.13-.82.58-.15,1.11-.44,1.6-.79,1.2-.86,1.79-2.01,1.69-3.49-.02-.28-.05-.56-.07-.84-.11-1.72.17-3.32,1.23-4.76.77-1.06.65-1.44-.44-2.26-.8-.6-.8-.63-.39-1.71.69-.04,1.36.53,2.08.12.69-1.36.55-1.8-.77-2.44-.53-.26-1.14-.4-1.5-.93-.09-.36-.12-.71.12-1.05.73-.27,1.29.22,1.91.43,1.22.41,1.65.12,1.73-1.27-1.02-1.14-2.73-1.22-3.78-2.28-.14-.49-.04-.84.34-1.11,1.49-.08,2.61,1.44,4.15,1.03.26-.34.39-.67.41-1.14-.69-.97-1.8-1.43-2.88-1.92-.61-.28-1.28-.45-1.81-.89-.09-.07-.15-.18-.21-.26-.07-.38-.11-.73.17-1.03.8-.08,1.48.31,2.17.59.81.32,1.6.73,2.41,1.05.38.15.79.17,1.09-.21.28-.35.26-.92-.06-1.33-.3-.39-.73-.61-1.15-.85-1.43-.79-2.94-1.43-4.48-1.97-.48-.17-1.03-.28-1.15-.92.04-.39.28-.65.58-.88.52-.12,1.01,0,1.52.15.77.24,1.45.67,2.13,1.08.86.53,1.75.95,2.74,1.16.49.1.97.13,1.24-.42.24-.5.05-.95-.29-1.31-.44-.47-1-.8-1.55-1.12-1.25-.72-2.58-1.25-3.92-1.77-.47-.18-1.01-.3-1.18-.89.56-.8.78-.9,1.78-.57,1.51.5,2.98,1.14,4.38,1.89.38.21.74.48,1.18.51.53-.11.67-.5.79-.95.51-1.92.04-3.64-1.08-5.21-1.16-1.63-2.76-2.76-4.48-3.73-3.18-1.78-6.63-2.91-10.08-4.05-.47-.16-.95-.2-1.42-.11-2.37.48-4.23,1.61-5.12,4-.16.44-.28.93-.84,1.21-.51.08-1.02-.05-1.45-.47-.02-2.25,1.46-3.69,2.9-5.28-1.07,0-1.95-.1-2.82.11-2.39.58-3.98,2.09-4.93,4.32-.23.54-.29,1.17-.8,1.52-.64.19-1.03-.1-1.38-.56.17-2.34,1.89-3.73,3.44-5.39-1.64.04-2.95.41-4.04,1.41-1.19,1.1-2.17,2.35-2.7,3.9-.13.38-.21.78-.65.92-.98-.37-1.09-.56-.84-1.46.12-.44.5-.8.42-1.34-1.97,1.46-2.93,3.13-2.68,4.67.54.2,1.09.06,1.62-.06.87-.19,1.75-.17,2.63-.13.52.02.96.15.94.83-.39.6-1.04.54-1.61.58-1.16.09-2.3.29-3.42.57-.72.18-1.34.53-1.46,1.36.28.57.77.55,1.25.53,1-.03,2-.09,3-.11.55-.01,1.13-.02,1.28.68-.25.53-.67.59-1.12.64-1.23.14-2.46.28-3.68.47-.95.15-1.76.5-1.95,1.58.37.52.85.45,1.33.43,1.08-.05,2.16-.08,3.24-.12.58-.02,1.01.19,1.15.81-.41.63-1.03.83-1.74.91-1.19.12-2.39.26-3.57.46-.88.15-1.52.63-1.64,1.55.37.5.84.38,1.27.38,1.12,0,2.24-.03,3.36-.03.49,0,.98.03,1.12.67ZM47.54,57.16c-.6-.34-1.19-.4-1.78-.45-2.07-.18-4.14-.33-6.21-.52-1.58-.15-2.95-.67-3.71-2.23-.32-.65-.88-1.01-1.59-1.14-1.22-.22-2.43-.46-3.65-.68-.24-.04-.48-.04-.79.16-.61.82-.41,1.72.1,2.59.76,1.28,1.93,2.04,3.37,2.25,3.72.55,7.46.85,11.21,1.08,1.06.06,2.13-.17,3.04-1.06Z"/>
  <path class="cls-1" d="M49.93,29.95c-.05.53-.43.61-.85.62-.77.03-1.51-.17-2.23-.36-3.87-1.03-7.8-1.59-11.8-1.63-.44,0-.88-.03-1.27-.28-.31-.2-.56-.47-.48-.89.07-.36.35-.49.67-.59.43-.13.87-.15,1.3-.12,4.53.29,9.06.62,13.34,2.35.83.33.84.3,1.31.9Z"/>
  <path class="cls-1" d="M35.27,19.9c.12-.51.48-.67.97-.69,5.21-.18,10.35.28,15.32,1.94.19.06.37.15.54.25.09.06.15.18.22.28.02.64-.43.79-.92.87-.45.07-.87-.07-1.29-.2-3.92-1.2-7.93-1.69-12.02-1.74-.68,0-1.35-.09-2.03-.14-.39-.03-.7-.16-.8-.58Z"/>
  <path class="cls-1" d="M51.05,25.54c.05.38-.02.63-.26.85-.54.25-1.09.12-1.62-.04-4.26-1.32-8.61-1.94-13.07-1.83-.74.02-1.54.09-1.96-.77.22-.71.79-.75,1.35-.74,1.67.02,3.35,0,5.02.13,3.02.25,6,.78,8.91,1.64.56.17,1.18.24,1.63.76Z"/>
  <path class="cls-1" d="M47.72,37.57c-.14.36-.29.63-.59.81-.73.21-1.43-.08-2.11-.25-4.04-1-8.12-1.7-12.28-1.92-.32-.02-.63-.08-.95-.13-.38-.07-.71-.24-.68-.69.03-.45.39-.55.78-.56,1.28-.02,2.56-.04,3.83.09,3.5.36,6.94,1.03,10.35,1.89.56.14,1.21.16,1.64.77Z"/>
  <path class="cls-1" d="M46.49,41.39c-.55.93-.67,1.01-1.65.79-2.02-.44-4.05-.89-6.09-1.23-2.16-.36-4.33-.67-6.52-.87-.56-.05-1.11-.13-1.66-.21-.34-.05-.63-.2-.64-.59,0-.44.3-.62.7-.66,1.08-.1,2.16,0,3.23.1,3.65.38,7.26.99,10.82,1.88.46.11.91.27,1.36.44.14.05.25.19.45.35Z"/>
  <path class="cls-1" d="M40.92,51.09c-.17.55-.61.58-1.06.53-2.17-.24-4.2-.87-5.99-2.16-.83-.6-1.26-1.42-1.26-2.45,0-1.07-.06-2.15.2-3.21.11-.43.25-.84.56-1.2.54-.29,1.04-.15,1.54.15.17.68.06,1.3-.06,1.93-.52,2.76.13,3.97,2.71,5.07.7.3,1.41.53,2.15.71.45.11.96.14,1.22.63Z"/>
  <path class="cls-1" d="M26.86,42.1c.43-.26.85-.15,1.31.02.45.7.09,1.45.05,2.18-.02.35-.15.7-.19,1.06-.19,1.46.38,2.56,1.59,3.37.77.51,1.61.87,2.46,1.21.26.1.53.16.71.4-.12.34-.35.21-.59.17-1.14-.2-2.26-.44-3.3-.98-2.35-1.24-3.17-2.91-2.64-5.52.13-.66.14-1.36.61-1.9Z"/>
  <path class="cls-1" d="M24.16,48.41c-2.49-.84-3.38-5.04-1.41-6.78.1,0,.23,0,.33.04.22.09.46.13.63.4,0,.07.05.19.03.3-.11.71-.21,1.42-.35,2.12-.28,1.32-.04,2.52.71,3.64.06.08.17.17.06.29Z"/>
</svg>