<?xml version="1.0" encoding="UTF-8"?>
<svg id="Layer_16_Image" data-name="Layer 16 Image" xmlns="http://www.w3.org/2000/svg" viewBox="0 0 122.96 24.03">
  <defs>
    <style>
      .cls-1 {
        fill: #010101;
        stroke-width: 0px;
      }
    </style>
  </defs>
  <path class="cls-1" d="M36.74,15.39c0-2.2.07-4.4-.02-6.6-.17-4.15,2.33-6.41,5.15-7.53C44.85.08,48-.16,51.17.11c1.38.12,2.75.35,4.08.81,1.33.46,2.59,1.03,3.66,1.95.36.31.6.37,1,.03,2-1.66,4.37-2.36,6.9-2.69,2.08-.27,4.14-.25,6.2.05,2.63.38,5.15,1.06,7.08,3.07,1.27,1.33,1.99,2.91,2.01,4.72.05,5.04.02,10.08.02,15.11,0,.6-.02.61-.69.61-1.84,0-3.68,0-5.52,0-.74,0-.8.08-.79-.77.01-2.32,0-4.64,0-6.96,0-2.44,0-4.88,0-7.32,0-2.83-1.48-4.13-3.63-4.62-2.02-.45-4.05-.45-5.99.34-1.68.68-2.56,1.96-2.57,3.8,0,4.76,0,9.52,0,14.27q0,1.24-1.27,1.24c-1.48,0-2.96,0-4.44,0q-1.29,0-1.29-1.35c0-4.52,0-9.04,0-13.56,0-.44.01-.89-.07-1.31-.34-1.61-1.25-2.73-2.85-3.23-2.24-.71-4.48-.73-6.68.12-1.68.65-2.59,1.95-2.59,3.78-.01,4.76,0,9.52,0,14.27,0,.28-.01.56,0,.84.01.3-.1.43-.41.43-2.04,0-4.08-.01-6.12,0-.48,0-.48-.27-.48-.61,0-2.6,0-5.2,0-7.8Z"/>
  <path class="cls-1" d="M0,15.88c0-2.08.01-4.16,0-6.24-.02-3.06,1.34-5.34,3.88-6.98C5.96,1.32,8.29.68,10.7.29,12.64-.02,14.6-.05,16.55.06c3.01.17,5.93.75,8.6,2.2,2.07,1.13,3.63,2.72,4.26,5.07.2.73.34,1.48.34,2.23,0,4.48,0,8.96,0,13.44,0,.74.03.79-.79.79-3.48,0-6.96,0-10.44,0-.82,0-.75-.06-.74-.82,0-.6.02-1.19-.2-1.77-.16-.41-.41-.52-.82-.52-1.32.02-2.64,0-3.96,0-.69,0-.92.22-.99.92-.05.52-.06,1.04-.04,1.56.02.46-.13.65-.61.63-.64-.03-1.28,0-1.92,0-2.8,0-5.6,0-8.4,0-.84,0-.85-.01-.85-.82,0-2.36,0-4.72,0-7.08ZM16.33,20.42c.36,0,.72.04,1.07,0,1.32-.19,2.57-.57,2.28-2.35-.07-.43-.04-.89.29-1.25.37-.4.25-.67-.14-.97-.27-.21-.16-.41.17-.45.12-.02.25.02.36-.02.33-.1.42-.42.18-.63-.09-.08-.2-.13-.3-.2-.23-.17-.74-.19-.6-.56.1-.28.5,0,.76.02.21.02.43.04.52-.17.1-.26-.09-.42-.29-.58-.28-.24-.7-.18-.94-.49-.04-.06-.11-.15-.09-.19.02-.06.12-.11.19-.11.12,0,.24,0,.35.04.42.12.97.62,1.22-.02.15-.4-.52-.59-.88-.81-.03-.02-.06-.05-.1-.07-.27-.14-.84-.14-.67-.53.11-.26.64,0,.95.19.1.06.22.09.32.15.27.16.54.22.71-.11.17-.34-.12-.53-.35-.66-.56-.3-1.14-.55-1.72-.81-.16-.07-.31-.19-.27-.34.04-.15.25-.14.41-.15.31-.03.51.2.76.31.32.15.64.32.94.51.26.17.48.08.63-.1.23-.29.07-.53-.2-.69-.41-.24-.82-.48-1.25-.7-.21-.11-.44-.17-.65-.27-.1-.05-.24-.12-.17-.26.07-.15.19-.24.38-.15.57.27,1.14.55,1.71.81.45.21.62.08.69-.44.11-.77-.15-1.41-.65-1.95-.32-.35-.7-.64-1.11-.9-1.05-.67-2.2-1.07-3.38-1.42-1.12-.33-1.97.08-2.52,1.14-.07.14-.12.3-.22.42-.07.07-.22.12-.31.1-.1-.02-.23-.15-.16-.27.2-.38.19-.85.53-1.17.17-.16.51-.34.38-.54-.19-.29-.55-.17-.85-.03-.25.12-.5.23-.76.33-.18.07-.45.16-.52-.07-.1-.34-.21-.29-.5-.22-.81.19-1.34.67-1.68,1.39-.1.21-.16.45-.27.66-.05.1-.18.16-.29.09-.06-.04-.09-.12-.11-.2-.05-.23.51-.5.04-.65-.32-.1-.52.29-.64.6-.04.11-.12.21-.16.32-.19.6-.01.77.64.63.23-.05.47-.1.7-.12.16,0,.33.05.32.26,0,.13-.13.2-.25.19-.57-.03-1.1.18-1.63.34-.15.04-.25.2-.25.37,0,.21.17.25.33.25.28,0,.56,0,.84,0,.21,0,.56-.12.59.14.02.19-.34.29-.58.33-.23.04-.48.04-.72.02-.3-.03-.54.12-.78.26-.08.05-.16.19-.16.29,0,.13.14.18.25.18.48,0,.96-.01,1.44,0,.1,0,.22.06.23.21.01.15-.11.23-.2.25-.55.1-1.1.15-1.64.28-.25.06-.58.21-.5.55.05.2.34.14.53.14.16,0,.33-.04.48,0,.29.09.85-.27.84.28,0,.34-.54.16-.83.18-.39.03-.8-.06-1.15.22-.13.11-.24.24-.17.39.03.08.2.14.3.15.44.01.88-.01,1.32,0,.18,0,.3.13.28.31-.01.1-.12.17-.27.17-.52,0-1.04-.07-1.54.14-.25.11-.6.11-.53.5.06.31.34.28.58.28.4,0,.8,0,1.2.01.1,0,.26,0,.24.14-.02.1-.13.23-.22.25-.27.05-.55.05-.83.06-1.15.01-1.5.32-1.65,1.45-.09.63.22,1.07.66,1.45.59.5,1.3.75,2.03.94.27.07.55.08.8.21.13.07.18.09.14.31-.18.87.25,1.42,1.2,1.65,1.54.38,3.1.21,4.65.23.12,0,.24-.06.25-.19.01-.21-.16-.26-.32-.27-.8,0-1.58-.05-2.38-.19-.43-.07-.76-.2-1.03-.52-.14-.18-.46-.33-.34-.58.16-.34.39.03.6.04.96,0,1.91.14,2.86.25,1.04.12,1.11.01,1.11-1.11,0-1.48.01-2.96.02-4.44,0-.24,0-.48,0-.72,0-.22-.07-.37-.32-.42-1.39-.25-2.74-.74-4.18-.73-.32,0-.64,0-.95-.05-.09-.01-.19-.14-.22-.24-.06-.17.12-.18.21-.18.64.01,1.27-.06,1.91.09.96.22,1.95.26,2.9.59.23.08.55.13.68-.27.07-.21.27-.5.52-.39.34.15-.09.36-.06.57.03.23,0,.48,0,.71,0,2.16-.02,4.32,0,6.48,0,.87-.24,1.56-1,2.04Z"/>
  <path class="cls-1" d="M114.61,11.78c2.56,0,5.12,0,7.68,0,.51,0,.71-.07.67.65-.05,1.19.1,2.39-.24,3.57-.56,1.9-1.82,3.25-3.35,4.39-1.98,1.48-4.25,2.33-6.63,2.87-2.81.64-5.67.9-8.55.72-3.57-.22-7.02-.89-10.19-2.65-2.44-1.36-4.41-3.21-5.33-5.9-1.48-4.3-.19-8.71,3.63-11.59,2.34-1.77,5.02-2.73,7.86-3.29,2.39-.47,4.83-.63,7.27-.49,3.16.19,6.25.73,9.1,2.18,2.2,1.12,4.11,2.61,5.41,4.76.1.17.2.34.3.52q.95,1.79-1.08,1.79c-1.44,0-2.88-.02-4.32,0-.57,0-.9-.08-1.17-.71-.59-1.4-1.68-2.39-3.04-3.09-1.47-.76-3.05-1.18-4.68-1.33-2.72-.25-5.43-.16-8,.91-2.37.99-4.04,2.65-4.63,5.24-.83,3.69.87,7.1,4.17,8.62,1.65.76,3.39,1.12,5.2,1.2,2.53.12,5.02-.1,7.42-.97,1.29-.47,2.47-1.12,3.29-2.28.14-.19.27-.4.38-.61.33-.61.29-.67-.35-.68-.76-.01-1.52,0-2.28,0-2.08,0-4.16,0-6.24,0-.69,0-.7-.02-.7-.74,0-.8.02-1.6,0-2.4-.02-.76.13-.71.75-.7,2.56,0,5.12,0,7.68,0Z"/>
  <path class="cls-1" d="M12.86,7.75c1.37.11,2.81.27,4.22.69.17.05.31.17.27.33-.05.16-.24.16-.4.14-.04,0-.08,0-.12,0-1.43-.46-2.89-.64-4.39-.58-.18,0-.37-.11-.53-.21-.15-.09-.04-.21.05-.27.25-.16.54-.05.9-.08Z"/>
  <path class="cls-1" d="M12.69,9.15c1.41-.04,2.73.36,4.06.76.17.05.27.18.28.34,0,.03-.21.1-.32.09-.24-.01-.48-.03-.7-.09-1.26-.38-2.55-.53-3.85-.6-.16,0-.31-.03-.46-.08-.06-.02-.11-.1-.14-.17-.06-.16.09-.24.18-.24.32-.02.63,0,.95,0Z"/>
  <path class="cls-1" d="M11.27,11.82c1.57.19,2.93.38,4.27.69.19.04.36.16.52.26.05.03.09.13.07.19-.03.12-.12.21-.25.18-.15-.03-.29-.13-.44-.15-1.39-.24-2.79-.46-4.18-.69-.17-.03-.46.06-.39-.26.05-.25.29-.21.49-.21.04,0,.08,0-.08,0Z"/>
  <path class="cls-1" d="M13.87,6.49c1.13-.06,2.27.29,3.43.52.11.02.22.09.32.15.15.08.25.2.13.37-.07.1-.19.16-.31.11-.51-.22-1.05-.32-1.59-.45-.86-.22-1.73-.2-2.6-.22-.27,0-.55-.03-.82-.07-.05,0-.11-.1-.14-.17-.08-.18.11-.23.18-.23.44-.02.87,0,1.39,0Z"/>
  <path class="cls-1" d="M11.32,13.23c1.32.12,2.82.45,4.33.75.11.02.22.11.21.25-.01.14-.12.18-.23.2-.57.09-1.07-.21-1.62-.3-1.01-.16-2-.43-3.03-.43-.12,0-.25.01-.35-.03-.1-.03-.22-.09-.21-.25.01-.14.12-.19.23-.2.16-.02.32,0,.68,0Z"/>
  <path class="cls-1" d="M11.79,14.63c.18.03.26.13.26.25,0,.16-.06.31-.09.46-.2.88.02,1.33.82,1.73.32.16.66.25,1.01.3.07.01.12.18.18.28-.1.05-.22.14-.31.13-.35-.07-.69-.15-1.02-.27-1.18-.43-1.62-1.35-1.24-2.56.07-.21.2-.33.39-.32Z"/>
  <path class="cls-1" d="M8.02,14.26c.12.04.23.12.2.24-.14.57-.36,1.13-.03,1.71,0,0-.11.1-.17.13-.03.02-.09.01-.12,0-.36-.27-.36-1.76,0-2.06.03-.02.07-.01.11-.02Z"/>
  <path class="cls-1" d="M9.64,15.46c-.1.25.22.85-.17.86-.57,0-.28-.61-.32-.96-.02-.19.03-.4.05-.59.02-.18.13-.31.3-.31.19,0,.22.18.21.34-.01.2-.04.4-.08.66Z"/>
  <path class="cls-1" d="M12.31,4.79c.07.03.18.06.19.11.1.34-.13.58-.28.84-.03.05-.15.07-.21.06-.11-.03-.24-.11-.18-.25.1-.25.24-.49.37-.72.01-.02.07-.02.11-.02Z"/>
  <path class="cls-1" d="M10.19,16.77c.11.03.24.03.32.1.07.06.15.22.12.28-.09.18-.23.11-.35,0-.08-.07-.18-.13-.27-.2.06-.06.12-.12.19-.18Z"/>
  <path class="cls-1" d="M10,16.95c-.06-.14-.47-.09-.26-.35.14-.18.34-.01.44.17-.06.06-.12.12-.19.18Z"/>
</svg>