<?xml version="1.0" encoding="UTF-8"?>
<svg id="Layer_3_Image" data-name="Layer 3 Image" xmlns="http://www.w3.org/2000/svg" viewBox="0 0 46.95 19.79">
  <path d="M36.73,9.86c3.4,3.3,6.71,6.52,10.21,9.92h-9.77c-3.32-3.22-6.73-6.53-10.22-9.91C30.41,6.52,33.8,3.26,37.17,0h9.78c-3.51,3.39-6.83,6.58-10.22,9.86ZM34.8,9.85c2.76-2.91,5.68-5.31,8.23-8.31h-5.33c-2.77,2.72-5.76,5.35-8.53,8.33,2.85,2.96,5.75,5.67,8.55,8.32h5.32c-2.55-3.09-5.75-5.32-8.24-8.34Z" stroke-width="0"/>
  <path d="M23.7,0h9.77c-3.5,3.38-6.78,6.55-10.21,9.86,3.36,3.27,6.69,6.5,10.21,9.92h-9.77c-3.29-3.19-6.7-6.49-10.23-9.92C16.91,6.56,20.29,3.29,23.7,0ZM15.75,9.89c2.9,2.81,5.65,5.66,8.6,8.29h5.22c-2.59-3.04-5.59-5.49-8.06-8.31,2.73-2.83,5.37-5.56,8.05-8.34h-5.27c-2.78,2.74-5.76,5.36-8.54,8.36Z" stroke-width="0"/>
  <path d="M10.23,0h9.76c-3.51,3.4-6.81,6.59-10.2,9.87,3.38,3.28,6.68,6.5,10.18,9.9h-9.77c-3.3-3.2-6.73-6.53-10.2-9.9C3.44,6.55,6.82,3.29,10.23,0ZM2.13,9.95c2.92,2.91,5.81,5.67,8.56,8.2h5.42c-2.61-2.99-5.58-5.41-8.26-8.41,2.87-2.71,5.65-5.34,8.44-7.97-.06-.07-.11-.14-.17-.21h-5.31c-2.85,2.63-5.72,5.33-8.68,8.4Z" stroke-width="0"/>
</svg>